<?xml version="1.0" encoding="UTF-8" standalone="no"?>
<!-- Created with Inkscape (http://www.inkscape.org/) -->

<svg
   xmlns:dc="http://purl.org/dc/elements/1.1/"
   xmlns:cc="http://creativecommons.org/ns#"
   xmlns:rdf="http://www.w3.org/1999/02/22-rdf-syntax-ns#"
   xmlns:svg="http://www.w3.org/2000/svg"
   xmlns="http://www.w3.org/2000/svg"
   xmlns:sodipodi="http://sodipodi.sourceforge.net/DTD/sodipodi-0.dtd"
   xmlns:inkscape="http://www.inkscape.org/namespaces/inkscape"
   id="svg2"
   version="1.1"
   inkscape:version="0.48.3.1 r9886"
   width="1280"
   height="960"
   xml:space="preserve"
   sodipodi:docname="sprk-background-image.pdf"
   inkscape:export-filename="/tmp/slide.png"
   inkscape:export-xdpi="180"
   inkscape:export-ydpi="180"><metadata
     id="metadata8"><rdf:RDF><cc:Work
         rdf:about=""><dc:format>image/svg+xml</dc:format><dc:type
           rdf:resource="http://purl.org/dc/dcmitype/StillImage" /><dc:title></dc:title></cc:Work></rdf:RDF></metadata><defs
     id="defs6"><clipPath
       clipPathUnits="userSpaceOnUse"
       id="clipPath16"><path
         d="m 8.504,8.504 1024,0 0,768 -1024,0 0,-768 z"
         id="path18"
         inkscape:connector-curvature="0" /></clipPath><clipPath
       clipPathUnits="userSpaceOnUse"
       id="clipPath30"><path
         d="m 0,785.008 1041.008,0 L 1041.008,0 0,0 0,785.008 z"
         id="path32"
         inkscape:connector-curvature="0" /></clipPath></defs><sodipodi:namedview
     pagecolor="#ffffff"
     bordercolor="#666666"
     borderopacity="1"
     objecttolerance="10"
     gridtolerance="10"
     guidetolerance="10"
     inkscape:pageopacity="0"
     inkscape:pageshadow="2"
     inkscape:window-width="1366"
     inkscape:window-height="709"
     id="namedview4"
     showgrid="false"
     fit-margin-top="0"
     fit-margin-left="0"
     fit-margin-right="0"
     fit-margin-bottom="0"
     inkscape:zoom="0.9620284"
     inkscape:cx="1018.7534"
     inkscape:cy="751.57075"
     inkscape:window-x="0"
     inkscape:window-y="27"
     inkscape:window-maximized="1"
     inkscape:current-layer="g28" /><g
     id="g10"
     inkscape:groupmode="layer"
     inkscape:label="slide"
     transform="matrix(1.25,0,0,-1.25,-10.63,970.63)"><g
       id="g26"><g
         id="g28"
         clip-path="url(#clipPath30)"><g
           id="g34"
           transform="translate(32.3408,759.9639)"><path
             d="m 0,0 c -0.583,-0.024 -1.018,-0.198 -1.309,-0.528 -0.294,-0.331 -0.438,-0.698 -0.438,-1.097 0,-0.392 0.09,-0.699 0.271,-0.923 0.173,-0.238 0.401,-0.419 0.695,-0.558 0.288,-0.142 0.625,-0.256 0.996,-0.357 0.373,-0.094 0.771,-0.212 1.183,-0.331 0.414,-0.124 0.824,-0.279 1.231,-0.463 0.403,-0.176 0.783,-0.418 1.133,-0.733 0.368,-0.318 0.645,-0.701 0.83,-1.143 0.181,-0.448 0.27,-1.006 0.27,-1.668 0.012,-1.294 -0.386,-2.442 -1.212,-3.428 -0.823,-0.969 -2.149,-1.49 -3.968,-1.563 -1.562,0.057 -2.751,0.556 -3.56,1.501 -0.781,0.963 -1.175,2.062 -1.175,3.302 l 2.897,0 c -0.018,-0.557 0.117,-1.065 0.409,-1.52 0.307,-0.477 0.816,-0.723 1.519,-0.734 0.763,0.028 1.304,0.237 1.62,0.634 0.31,0.398 0.457,0.858 0.445,1.389 0,0.432 -0.083,0.775 -0.252,1.018 -0.171,0.25 -0.391,0.45 -0.654,0.598 C 0.664,-6.46 0.348,-6.343 0,-6.259 c -0.348,0.084 -0.715,0.18 -1.087,0.281 -0.377,0.105 -0.756,0.228 -1.125,0.389 -0.376,0.15 -0.73,0.362 -1.049,0.648 -0.456,0.428 -0.787,0.876 -0.984,1.354 -0.2,0.474 -0.299,0.984 -0.299,1.522 -0.012,1.086 0.335,2.111 1.052,3.067 0.742,0.935 1.947,1.434 3.631,1.502 C 1.702,2.45 2.816,1.967 3.489,1.048 4.182,0.138 4.515,-0.78 4.494,-1.708 l -2.842,0 c 0,0.441 -0.134,0.837 -0.404,1.18 C 0.984,-0.191 0.57,-0.011 0,0"
             style="fill:#273644;fill-opacity:1;fill-rule:nonzero;stroke:none"
             id="path36"
             inkscape:connector-curvature="0" /></g><g
           id="g38"
           transform="translate(47.3677,753.125)"><path
             d="M 0,0 C 0,0.717 -0.277,1.423 -0.832,2.105 -1.388,2.783 -2.183,3.146 -3.211,3.191 -4.213,3.146 -4.987,2.792 -5.546,2.125 -6.104,1.485 -6.385,0.799 -6.385,0.061 c 0,-0.792 0.268,-1.562 0.79,-2.291 0.517,-0.719 1.328,-1.102 2.427,-1.174 1.013,0.041 1.795,0.403 2.336,1.083 C -0.277,-1.636 0,-0.862 0,0 m -9.013,-0.088 c 0,1.345 0.465,2.638 1.398,3.861 0.946,1.239 2.375,1.897 4.279,1.964 0.747,0.016 1.428,-0.116 2.04,-0.393 C -0.682,5.077 -0.153,4.65 0.29,4.067 l 0,1.331 2.469,0 0,-11.099 -2.469,0 0,1.38 c -0.307,-0.549 -0.731,-0.954 -1.299,-1.224 -0.565,-0.27 -1.33,-0.399 -2.289,-0.399 -1.865,0.077 -3.281,0.71 -4.253,1.895 -0.97,1.18 -1.462,2.503 -1.462,3.961"
             style="fill:#273644;fill-opacity:1;fill-rule:nonzero;stroke:none"
             id="path40"
             inkscape:connector-curvature="0" /></g><g
           id="g42"
           transform="translate(58.0938,749.6753)"><path
             d="m 0,0 c 1.046,0.056 1.837,0.437 2.378,1.129 0.559,0.7 0.834,1.458 0.834,2.276 0,0.789 -0.275,1.513 -0.834,2.17 C 1.809,6.242 0.973,6.595 -0.121,6.641 -1.111,6.595 -1.879,6.251 -2.418,5.596 -2.948,4.942 -3.212,4.212 -3.212,3.405 -3.212,2.531 -2.933,1.748 -2.379,1.063 -1.82,0.4 -1.034,0.046 0,0 m -3.332,8.848 0,-0.959 c 0.425,0.375 0.917,0.687 1.477,0.925 0.559,0.249 1.215,0.373 1.981,0.373 1.85,-0.06 3.27,-0.69 4.257,-1.901 C 5.355,6.103 5.861,4.782 5.887,3.324 5.861,1.857 5.351,0.54 4.362,-0.646 3.376,-1.811 1.916,-2.43 0,-2.494 c -0.711,0 -1.333,0.087 -1.879,0.281 -0.539,0.199 -1.028,0.486 -1.453,0.883 l 0,-4.51 -2.553,0 0,14.688 2.553,0 z"
             style="fill:#273644;fill-opacity:1;fill-rule:nonzero;stroke:none"
             id="path44"
             inkscape:connector-curvature="0" /></g><g
           id="g46"
           transform="translate(71.4536,749.6753)"><path
             d="m 0,0 c 1.042,0.056 1.834,0.437 2.378,1.129 0.553,0.7 0.834,1.458 0.834,2.276 0,0.789 -0.281,1.513 -0.834,2.17 -0.57,0.667 -1.411,1.02 -2.505,1.066 -0.99,-0.046 -1.756,-0.39 -2.299,-1.045 -0.522,-0.654 -0.79,-1.384 -0.79,-2.191 0,-0.874 0.274,-1.657 0.832,-2.342 C -1.829,0.4 -1.032,0.046 0,0 m -3.344,8.848 0,-0.959 c 0.431,0.375 0.925,0.687 1.483,0.925 0.559,0.249 1.222,0.373 1.982,0.373 C 1.97,9.127 3.389,8.497 4.383,7.286 5.354,6.103 5.855,4.782 5.885,3.324 5.855,1.857 5.35,0.54 4.358,-0.646 3.375,-1.811 1.915,-2.43 0,-2.494 c -0.714,0 -1.339,0.087 -1.883,0.281 -0.543,0.199 -1.03,0.486 -1.461,0.883 l 0,-4.51 -2.54,0 0,14.688 2.54,0 z"
             style="fill:#273644;fill-opacity:1;fill-rule:nonzero;stroke:none"
             id="path48"
             inkscape:connector-curvature="0" /></g><g
           id="g50"
           transform="translate(84.2676,756.3545)"><path
             d="m 0,0 c -1.099,-0.038 -1.91,-0.407 -2.428,-1.083 -0.509,-0.667 -0.76,-1.43 -0.746,-2.272 0,-0.871 0.256,-1.624 0.771,-2.279 0.528,-0.648 1.326,-0.999 2.403,-1.045 1.146,0.046 1.972,0.413 2.462,1.11 0.484,0.708 0.719,1.493 0.702,2.359 0,0.862 -0.271,1.601 -0.829,2.212 C 1.794,-0.348 1.008,-0.011 0,0 M 0.084,2.508 C 2.018,2.421 3.452,1.75 4.402,0.503 5.358,-0.738 5.834,-2.005 5.834,-3.317 5.855,-4.684 5.368,-5.984 4.377,-7.24 3.386,-8.447 1.887,-9.096 -0.13,-9.183 c -1.852,0.115 -3.257,0.769 -4.237,1.96 -0.985,1.244 -1.485,2.526 -1.485,3.868 0,1.458 0.513,2.779 1.528,3.962 1.03,1.198 2.497,1.834 4.408,1.901"
             style="fill:#273644;fill-opacity:1;fill-rule:nonzero;stroke:none"
             id="path52"
             inkscape:connector-curvature="0" /></g><g
           id="g54"
           transform="translate(96.9092,756.3164)"><path
             d="m 0,0 c -0.874,-0.057 -1.541,-0.303 -1.99,-0.735 -0.454,-0.431 -0.678,-0.994 -0.678,-1.712 l 0,-6.407 -2.553,0 0,10.898 2.384,0 0,-1.212 C -2.574,1.207 -2.19,1.54 -1.693,1.825 -1.192,2.106 -0.62,2.303 0,2.398 L 0,0 z"
             style="fill:#273644;fill-opacity:1;fill-rule:nonzero;stroke:none"
             id="path56"
             inkscape:connector-curvature="0" /></g><g
           id="g58"
           transform="translate(103.126,756.3545)"><path
             d="m 0,0 c -1.102,-0.038 -1.903,-0.407 -2.418,-1.083 -0.51,-0.667 -0.762,-1.43 -0.745,-2.272 0,-0.871 0.246,-1.624 0.763,-2.279 0.533,-0.648 1.329,-0.999 2.4,-1.045 1.161,0.046 1.978,0.413 2.463,1.11 0.487,0.708 0.725,1.493 0.713,2.359 0,0.862 -0.281,1.601 -0.839,2.212 C 1.796,-0.348 1.021,-0.011 0,0 M 0.084,2.508 C 2.021,2.421 3.456,1.75 4.407,0.503 5.363,-0.738 5.844,-2.005 5.844,-3.317 5.862,-4.684 5.375,-5.984 4.384,-7.24 3.398,-8.447 1.898,-9.096 -0.119,-9.183 c -1.855,0.115 -3.267,0.769 -4.239,1.96 -0.991,1.244 -1.484,2.526 -1.484,3.868 0,1.458 0.507,2.779 1.524,3.962 1.029,1.198 2.499,1.834 4.402,1.901"
             style="fill:#273644;fill-opacity:1;fill-rule:nonzero;stroke:none"
             id="path60"
             inkscape:connector-curvature="0" /></g><g
           id="g62"
           transform="translate(119.6128,754.9741)"><path
             d="m 0,0 0.794,0 c 1.1,0 1.952,0.222 2.57,0.655 C 3.977,1.078 4.283,1.71 4.3,2.549 4.3,3.215 4.073,3.76 3.633,4.168 3.19,4.578 2.476,4.792 1.501,4.807 L 0,4.807 0,0 z m -2.833,-7.512 0,14.718 4.503,0 C 2.614,7.184 3.431,7.064 4.121,6.84 4.805,6.611 5.375,6.295 5.823,5.896 6.27,5.501 6.597,5.02 6.817,4.462 7.033,3.895 7.135,3.269 7.135,2.588 7.152,1.618 6.865,0.701 6.285,-0.162 5.71,-1.024 4.817,-1.569 3.59,-1.789 l 3.719,-5.723 -3.428,0 L 0,-0.6 l 0,-6.912 -2.833,0 z"
             style="fill:#273644;fill-opacity:1;fill-rule:nonzero;stroke:none"
             id="path64"
             inkscape:connector-curvature="0" /></g><g
           id="g66"
           transform="translate(135.8066,747.4624)"><path
             d="M 0,0 0,1.23 C -0.292,0.76 -0.701,0.391 -1.22,0.126 -1.739,-0.135 -2.378,-0.272 -3.133,-0.291 -4.58,-0.217 -5.642,0.232 -6.32,1.066 -7.014,1.945 -7.359,2.934 -7.347,4.05 l 0,7.011 2.503,0 0,-5.949 c 0,-0.399 0.041,-0.776 0.114,-1.134 0.084,-0.36 0.205,-0.669 0.391,-0.939 0.18,-0.271 0.419,-0.49 0.733,-0.65 0.303,-0.156 0.684,-0.233 1.146,-0.233 0.931,0.009 1.574,0.351 1.939,1.015 C -0.161,3.874 0.015,4.605 0,5.39 l 0,5.671 2.503,0 L 2.503,0 0,0 z"
             style="fill:#273644;fill-opacity:1;fill-rule:nonzero;stroke:none"
             id="path68"
             inkscape:connector-curvature="0" /></g><g
           id="g70"
           transform="translate(146.3252,756.3164)"><path
             d="m 0,0 c -1.03,-0.033 -1.821,-0.385 -2.38,-1.066 -0.553,-0.657 -0.835,-1.42 -0.835,-2.3 0,-0.804 0.269,-1.549 0.797,-2.23 0.542,-0.648 1.301,-0.999 2.29,-1.045 1.098,0.046 1.939,0.4 2.503,1.063 0.559,0.685 0.84,1.424 0.84,2.212 0,0.813 -0.281,1.555 -0.84,2.237 C 1.835,-0.424 1.043,-0.046 0,0 m -5.88,5.857 2.546,0 0,-4.458 c 0.453,0.343 0.954,0.623 1.5,0.831 C -1.3,2.44 -0.668,2.546 0.043,2.546 1.967,2.486 3.414,1.855 4.405,0.645 5.393,-0.556 5.882,-1.873 5.882,-3.323 5.869,-4.772 5.365,-6.086 4.379,-7.287 3.396,-8.466 1.97,-9.088 0.123,-9.145 c -0.761,0.019 -1.423,0.133 -1.981,0.357 -0.56,0.22 -1.05,0.507 -1.476,0.855 l 0,-0.921 -2.546,0 0,14.711 z"
             style="fill:#273644;fill-opacity:1;fill-rule:nonzero;stroke:none"
             id="path72"
             inkscape:connector-curvature="0" /></g><g
           id="g74"
           transform="translate(156.6313,747.7393)"><path
             d="m 0,0 -4.025,10.784 2.686,0 L 1.378,3 l 3.047,7.784 2.673,0 -6.011,-14.688 -2.629,0 L 0,0 z"
             style="fill:#273644;fill-opacity:1;fill-rule:nonzero;stroke:none"
             id="path76"
             inkscape:connector-curvature="0" /></g><g
           id="g78"
           transform="translate(172.1182,762.1797)"><path
             d="m 0,0 3.169,0 -4.714,-7.328 4.673,-7.389 -3.171,0 -4.421,7.326 L 0,0 z m -7.39,0 2.842,0 0,-14.717 -2.842,0 0,14.717 z"
             style="fill:#273644;fill-opacity:1;fill-rule:nonzero;stroke:none"
             id="path80"
             inkscape:connector-curvature="0" /></g><g
           id="g82"
           transform="translate(184.5151,753.125)"><path
             d="M 0,0 C 0,0.717 -0.284,1.423 -0.834,2.105 -1.391,2.783 -2.185,3.146 -3.211,3.191 -4.217,3.146 -5,2.792 -5.558,2.125 -6.107,1.485 -6.389,0.799 -6.389,0.061 c 0,-0.792 0.266,-1.562 0.79,-2.291 0.52,-0.719 1.325,-1.102 2.428,-1.174 1.011,0.041 1.793,0.403 2.337,1.083 C -0.284,-1.636 0,-0.862 0,0 m -9.017,-0.088 c 0,1.345 0.468,2.638 1.399,3.861 0.942,1.239 2.371,1.897 4.275,1.964 0.753,0.016 1.435,-0.116 2.048,-0.393 0.611,-0.267 1.137,-0.694 1.586,-1.277 l 0,1.331 2.46,0 0,-11.099 -2.46,0 0,1.38 C -0.016,-4.87 -0.45,-5.275 -1.02,-5.545 c -0.558,-0.27 -1.316,-0.399 -2.28,-0.399 -1.862,0.077 -3.28,0.71 -4.254,1.895 -0.981,1.18 -1.463,2.503 -1.463,3.961"
             style="fill:#273644;fill-opacity:1;fill-rule:nonzero;stroke:none"
             id="path84"
             inkscape:connector-curvature="0" /></g><path
           d="m 192.064,747.462 -2.503,0 0,11.061 2.503,0 0,-11.061 z m -2.503,14.712 2.503,0 0,-2.475 -2.503,0 0,2.475 z"
           style="fill:#273644;fill-opacity:1;fill-rule:nonzero;stroke:none"
           id="path86"
           inkscape:connector-curvature="0" /><g
           id="g88"
           transform="translate(202.9629,753.1519)"><path
             d="m 0,0 c 0,0.752 -0.284,1.493 -0.858,2.22 -0.56,0.758 -1.4,1.157 -2.524,1.211 -1.08,-0.07 -1.903,-0.442 -2.46,-1.12 -0.561,-0.679 -0.851,-1.42 -0.881,-2.23 0,-0.801 0.279,-1.575 0.832,-2.308 0.559,-0.721 1.405,-1.115 2.549,-1.184 1.05,0.039 1.859,0.408 2.441,1.098 C -0.33,-1.63 -0.028,-0.861 0,0 M -9.227,-0.071 C -9.241,1.26 -8.792,2.54 -7.872,3.765 -6.921,5.008 -5.501,5.65 -3.591,5.71 -2.913,5.727 -2.236,5.594 -1.568,5.317 -0.901,5.05 -0.295,4.624 0.248,4.04 l 0,1.331 2.297,0 0,-9.83 c 0,-1.471 -0.493,-2.752 -1.464,-3.854 -0.988,-1.111 -2.459,-1.699 -4.423,-1.754 -1.45,0.013 -2.592,0.384 -3.443,1.124 -0.877,0.728 -1.468,1.59 -1.777,2.594 l 2.466,0 c 0.181,-0.395 0.524,-0.748 1.02,-1.07 0.499,-0.321 1.106,-0.491 1.814,-0.521 1.225,0.067 2.12,0.483 2.676,1.232 0.564,0.776 0.849,1.637 0.834,2.601 -0.471,-0.475 -1.027,-0.861 -1.648,-1.154 -0.631,-0.298 -1.398,-0.449 -2.317,-0.467 -1.849,0.084 -3.237,0.731 -4.155,1.943 -0.901,1.224 -1.355,2.461 -1.355,3.714"
             style="fill:#273644;fill-opacity:1;fill-rule:nonzero;stroke:none"
             id="path90"
             inkscape:connector-curvature="0" /></g><path
           d="m 210.306,747.462 -2.503,0 0,11.061 2.503,0 0,-11.061 z m -2.504,14.712 2.503,0 0,-2.475 -2.503,0 0,2.475 z"
           style="fill:#273644;fill-opacity:1;fill-rule:nonzero;stroke:none"
           id="path92"
           inkscape:connector-curvature="0" /><g
           id="g94"
           transform="translate(218.6938,750.2197)"><path
             d="M 0,0 C 1.067,1.002 1.986,1.858 2.744,2.564 3.501,3.277 4.137,3.875 4.641,4.371 5.146,4.867 5.554,5.283 5.848,5.614 6.155,5.95 6.371,6.23 6.526,6.465 6.683,6.707 6.784,6.919 6.822,7.107 6.863,7.295 6.883,7.496 6.883,7.72 6.883,8.208 6.726,8.645 6.407,9.04 6.089,9.428 5.608,9.631 4.962,9.667 4.293,9.624 3.803,9.389 3.483,8.97 3.19,8.576 3.047,8.167 3.047,7.759 l 0,-0.561 -2.839,0 c -0.032,1.141 0.328,2.249 1.063,3.317 0.737,1.076 1.96,1.652 3.654,1.734 1.53,-0.069 2.712,-0.55 3.544,-1.44 C 9.31,9.906 9.725,8.874 9.725,7.72 9.82,6.816 9.477,5.874 8.705,4.899 8.31,4.429 7.673,3.775 6.792,2.943 5.914,2.106 4.755,1.08 3.337,-0.144 l 6.342,0 0,-2.613 L 0,-2.757 0,0 z"
             style="fill:#273644;fill-opacity:1;fill-rule:nonzero;stroke:none"
             id="path96"
             inkscape:connector-curvature="0" /></g><g
           id="g98"
           transform="translate(233.3433,752.0776)"><path
             d="m 0,0 c 0.014,-0.68 0.229,-1.238 0.643,-1.659 0.42,-0.421 0.985,-0.647 1.693,-0.656 0.748,0.03 1.316,0.273 1.694,0.738 0.372,0.463 0.557,1.032 0.557,1.7 l 0,5.364 c 0,0.292 -0.05,0.577 -0.142,0.858 C 4.348,6.62 4.206,6.866 4.018,7.071 3.826,7.283 3.592,7.451 3.297,7.585 3.002,7.715 2.668,7.793 2.288,7.809 1.92,7.793 1.587,7.715 1.304,7.585 1.016,7.451 0.775,7.277 0.577,7.065 0.392,6.844 0.245,6.601 0.145,6.312 0.049,6.026 0,5.725 0,5.406 L 0,0 z m -2.836,5.757 c 0.023,1.256 0.477,2.318 1.356,3.194 0.902,0.904 2.148,1.385 3.738,1.44 C 3.88,10.35 5.142,9.872 6.029,8.951 6.933,8.048 7.397,6.97 7.423,5.716 l 0,-6.175 C 7.414,-1.642 6.942,-2.664 6.009,-3.53 5.101,-4.371 3.88,-4.819 2.336,-4.858 c -1.725,0.067 -3.018,0.562 -3.884,1.473 -0.856,0.946 -1.288,2.06 -1.288,3.345 l 0,5.797 z"
             style="fill:#273644;fill-opacity:1;fill-rule:nonzero;stroke:none"
             id="path100"
             inkscape:connector-curvature="0" /></g><g
           id="g102"
           transform="translate(246.8252,760.0474)"><path
             d="m 0,0 -2.588,0 0,2.132 5.341,0 0,-14.717 -2.753,0 L 0,0 z"
             style="fill:#273644;fill-opacity:1;fill-rule:nonzero;stroke:none"
             id="path104"
             inkscape:connector-curvature="0" /></g><g
           id="g106"
           transform="translate(254.8755,750.2197)"><path
             d="M 0,0 C 1.075,1.002 1.988,1.858 2.744,2.564 3.508,3.277 4.139,3.875 4.643,4.371 5.152,4.867 5.555,5.283 5.855,5.614 6.159,5.95 6.376,6.23 6.533,6.465 6.69,6.707 6.785,6.919 6.827,7.107 6.873,7.295 6.892,7.496 6.892,7.72 6.892,8.208 6.731,8.645 6.411,9.04 6.088,9.428 5.605,9.631 4.97,9.667 4.299,9.624 3.807,9.389 3.489,8.97 3.194,8.576 3.052,8.167 3.052,7.759 l 0,-0.561 -2.842,0 c -0.026,1.141 0.332,2.249 1.066,3.317 0.74,1.076 1.953,1.652 3.654,1.734 1.524,-0.069 2.707,-0.55 3.543,-1.44 C 9.308,9.906 9.727,8.874 9.727,7.72 9.823,6.816 9.484,5.874 8.702,4.899 8.31,4.429 7.681,3.775 6.798,2.943 5.911,2.106 4.761,1.08 3.338,-0.144 l 6.348,0 0,-2.613 L 0,-2.757 0,0 z"
             style="fill:#273644;fill-opacity:1;fill-rule:nonzero;stroke:none"
             id="path108"
             inkscape:connector-curvature="0" /></g><g
           id="g110"
           transform="translate(30.6533,739.3369)"><path
             d="M 0,0 7.136,0 13.095,-23.741 19.778,0 24.599,0 31.18,-23.636 37.344,0 l 7.092,0 -10.48,-36.22 -5.654,0 -6.164,22.5 -6.165,-22.5 -5.542,0 L 0,0 z"
             style="fill:#273644;fill-opacity:1;fill-rule:nonzero;stroke:none"
             id="path112"
             inkscape:connector-curvature="0" /></g><g
           id="g114"
           transform="translate(97.4858,719.708)"><path
             d="M 0,0 C -0.442,1.776 -1.343,3.179 -2.697,4.188 -4.05,5.2 -5.647,5.718 -7.496,5.751 -9.383,5.718 -11.008,5.183 -12.379,4.163 -13.748,3.131 -14.655,1.746 -15.098,0 L 0,0 z m -15.312,-4.933 c 0.04,-1.646 0.718,-3.131 2.056,-4.472 1.268,-1.264 3.051,-1.932 5.353,-1.995 1.535,0 2.862,0.254 3.975,0.79 1.112,0.529 2.081,1.393 2.903,2.593 l 6.887,0 C 5.377,-9.319 4.755,-10.513 3.984,-11.614 3.208,-12.709 2.268,-13.677 1.126,-14.517 0,-15.356 -1.291,-16.024 -2.749,-16.514 c -1.454,-0.501 -3.109,-0.765 -4.958,-0.796 -4.658,0.2 -8.184,1.793 -10.583,4.772 -2.393,3.014 -3.594,6.238 -3.594,9.662 0.066,3.524 1.336,6.729 3.805,9.607 2.537,3.01 6.028,4.589 10.478,4.729 C -3.314,11.32 0.135,9.848 2.775,7.034 5.377,4.259 6.716,1.335 6.782,-1.748 l 0,-3.185 -22.094,0 z"
             style="fill:#273644;fill-opacity:1;fill-rule:nonzero;stroke:none"
             id="path116"
             inkscape:connector-curvature="0" /></g><g
           id="g118"
           transform="translate(121.8374,721.2988)"><path
             d="m 0,0 c 0.035,4.555 1.645,8.75 4.832,12.585 3.251,3.877 7.806,5.929 13.664,6.169 4.626,-0.108 8.326,-1.237 11.092,-3.392 2.811,-2.122 4.87,-4.795 6.17,-8.013 l -8.63,0 c -0.859,1.198 -1.986,2.194 -3.397,2.982 -1.397,0.783 -3.142,1.195 -5.235,1.227 C 14.831,11.357 12.035,9.988 10.123,7.459 8.237,4.964 7.295,2.485 7.295,0.025 c 0.036,-3.281 1.128,-6.049 3.289,-8.299 2.128,-2.261 4.795,-3.406 8.016,-3.437 1.775,0 3.376,0.329 4.801,0.981 1.421,0.663 2.563,1.617 3.421,2.865 l 8.627,0 c -1.34,-3.315 -3.433,-5.974 -6.292,-7.957 -2.865,-1.989 -6.413,-3.014 -10.661,-3.078 -6.17,0.24 -10.805,2.361 -13.927,6.366 C 1.523,-8.488 0,-4.317 0,0"
             style="fill:#273644;fill-opacity:1;fill-rule:nonzero;stroke:none"
             id="path120"
             inkscape:connector-curvature="0" /></g><g
           id="g122"
           transform="translate(174.4497,724.9961)"><path
             d="m 0,0 c -2.712,-0.105 -4.698,-0.99 -5.966,-2.674 -1.261,-1.638 -1.885,-3.506 -1.848,-5.594 0,-2.128 0.628,-3.994 1.903,-5.601 1.298,-1.612 3.269,-2.465 5.911,-2.569 2.839,0.104 4.861,1.011 6.057,2.725 1.198,1.744 1.782,3.677 1.743,5.803 0,2.122 -0.681,3.938 -2.05,5.444 C 4.411,-0.854 2.499,-0.032 0,0 m 0.201,6.172 c 4.76,-0.215 8.301,-1.854 10.634,-4.939 2.365,-3.045 3.546,-6.176 3.546,-9.397 0.032,-3.357 -1.165,-6.582 -3.599,-9.662 -2.44,-2.979 -6.13,-4.572 -11.097,-4.772 -4.557,0.272 -8.028,1.878 -10.424,4.819 -2.432,3.057 -3.657,6.216 -3.657,9.511 0,3.594 1.257,6.842 3.757,9.76 2.529,2.949 6.145,4.501 10.84,4.68"
             style="fill:#273644;fill-opacity:1;fill-rule:nonzero;stroke:none"
             id="path124"
             inkscape:connector-curvature="0" /></g><g
           id="g126"
           transform="translate(206.0894,724.8906)"><path
             d="M 0,0 C -2.532,-0.098 -4.503,-1.027 -5.902,-2.771 -7.24,-4.48 -7.91,-6.314 -7.91,-8.268 c 0,-1.951 0.684,-3.769 2.051,-5.445 1.376,-1.644 3.428,-2.516 6.172,-2.62 2.427,0.104 4.293,0.957 5.599,2.565 1.265,1.646 1.931,3.478 2.002,5.5 C 7.843,-6.104 7.141,-4.229 5.808,-2.613 4.404,-0.902 2.469,-0.035 0,0 m 8.218,-21.773 0,2.253 c -1.054,-0.853 -2.273,-1.554 -3.643,-2.097 -1.375,-0.555 -3.002,-0.845 -4.883,-0.875 -4.555,0.133 -8.049,1.659 -10.481,4.567 -2.431,2.948 -3.662,6.195 -3.696,9.763 0,3.561 1.213,6.816 3.648,9.76 2.433,2.974 6.01,4.54 10.735,4.679 1.748,0 3.289,-0.257 4.627,-0.776 C 5.861,4.984 7.093,4.309 8.218,3.445 l 0,11.001 6.274,0 0,-36.219 -6.274,0 z"
             style="fill:#273644;fill-opacity:1;fill-rule:nonzero;stroke:none"
             id="path128"
             inkscape:connector-curvature="0" /></g><g
           id="g130"
           transform="translate(246.062,719.708)"><path
             d="M 0,0 C -0.445,1.776 -1.344,3.179 -2.703,4.188 -4.053,5.2 -5.655,5.718 -7.506,5.751 -9.391,5.718 -11.012,5.183 -12.382,4.163 -13.753,3.131 -14.664,1.746 -15.101,0 L 0,0 z m -15.308,-4.933 c 0.033,-1.646 0.718,-3.131 2.056,-4.472 1.267,-1.264 3.044,-1.932 5.339,-1.995 1.544,0 2.869,0.254 3.985,0.79 1.113,0.529 2.075,1.393 2.898,2.593 l 6.884,0 C 5.374,-9.319 4.75,-10.513 3.977,-11.614 3.212,-12.709 2.263,-13.677 1.128,-14.517 0,-15.356 -1.295,-16.024 -2.75,-16.514 c -1.454,-0.501 -3.107,-0.765 -4.958,-0.796 -4.662,0.2 -8.184,1.793 -10.581,4.772 -2.396,3.014 -3.6,6.238 -3.6,9.662 0.075,3.524 1.343,6.729 3.806,9.607 2.531,3.01 6.022,4.589 10.481,4.729 C -3.326,11.32 0.139,9.848 2.775,7.034 5.374,4.259 6.712,1.335 6.779,-1.748 l 0,-3.185 -22.087,0 z"
             style="fill:#273644;fill-opacity:1;fill-rule:nonzero;stroke:none"
             id="path132"
             inkscape:connector-curvature="0" /></g><path
           d="m 258.287,709.796 6.27,0 0,-6.681 -6.27,0 0,6.681 z"
           style="fill:#273644;fill-opacity:1;fill-rule:nonzero;stroke:none"
           id="path134"
           inkscape:connector-curvature="0" /><g
           id="g136"
           transform="translate(514.3594,762.2417)"><path
             d="m 0,0 -57.304,-57.308 14.055,0 L 14.055,0 0,0 z"
             style="fill:#273644;fill-opacity:1;fill-rule:nonzero;stroke:none"
             id="path138"
             inkscape:connector-curvature="0" /></g><g
           id="g140"
           transform="translate(543.8242,762.2417)"><path
             d="m 0,0 -57.306,-57.308 14.055,0 L 14.056,0 0,0 z"
             style="fill:#273644;fill-opacity:1;fill-rule:nonzero;stroke:none"
             id="path142"
             inkscape:connector-curvature="0" /></g><g
           id="g144"
           transform="translate(573.2891,762.2417)"><path
             d="m 0,0 -57.307,-57.308 14.058,0 L 14.057,0 0,0 z"
             style="fill:#273644;fill-opacity:1;fill-rule:nonzero;stroke:none"
             id="path146"
             inkscape:connector-curvature="0" /></g><g
           id="g148"
           transform="translate(602.7578,762.2417)"><path
             d="m 0,0 -57.309,-57.308 14.053,0 L 14.056,0 0,0 z"
             style="fill:#273644;fill-opacity:1;fill-rule:nonzero;stroke:none"
             id="path150"
             inkscape:connector-curvature="0" /></g><g
           id="g152"
           transform="translate(632.2227,762.2417)"><path
             d="m 0,0 -57.306,-57.308 14.056,0 L 14.056,0 0,0 z"
             style="fill:#273644;fill-opacity:1;fill-rule:nonzero;stroke:none"
             id="path154"
             inkscape:connector-curvature="0" /></g><g
           id="g156"
           transform="translate(661.6895,762.2417)"><path
             d="m 0,0 -57.307,-57.308 14.053,0 L 14.057,0 0,0 z"
             style="fill:#273644;fill-opacity:1;fill-rule:nonzero;stroke:none"
             id="path158"
             inkscape:connector-curvature="0" /></g><g
           id="g160"
           transform="translate(691.1543,762.2417)"><path
             d="m 0,0 -57.309,-57.308 14.057,0 L 14.057,0 0,0 z"
             style="fill:#273644;fill-opacity:1;fill-rule:nonzero;stroke:none"
             id="path162"
             inkscape:connector-curvature="0" /></g><g
           id="g164"
           transform="translate(720.6201,762.2417)"><path
             d="m 0,0 -57.308,-57.308 14.057,0 L 14.056,0 0,0 z"
             style="fill:#273644;fill-opacity:1;fill-rule:nonzero;stroke:none"
             id="path166"
             inkscape:connector-curvature="0" /></g><g
           id="g168"
           transform="translate(289.2495,762.2417)"><path
             d="M 0,0 0,-3.446 3.447,0 0,0 z"
             style="fill:#273644;fill-opacity:1;fill-rule:nonzero;stroke:none"
             id="path170"
             inkscape:connector-curvature="0" /></g><g
           id="g172"
           transform="translate(308.1069,762.2417)"><path
             d="m 0,0 -18.857,-18.858 0,-14.054 L 14.054,0 0,0 z"
             style="fill:#273644;fill-opacity:1;fill-rule:nonzero;stroke:none"
             id="path174"
             inkscape:connector-curvature="0" /></g><g
           id="g176"
           transform="translate(337.5698,762.2417)"><path
             d="m 0,0 -48.32,-48.322 0,-8.986 5.071,0 L 14.056,0 0,0 z"
             style="fill:#273644;fill-opacity:1;fill-rule:nonzero;stroke:none"
             id="path178"
             inkscape:connector-curvature="0" /></g><g
           id="g180"
           transform="translate(367.0342,762.2417)"><path
             d="m 0,0 -57.305,-57.308 14.054,0 L 14.056,0 0,0 z"
             style="fill:#273644;fill-opacity:1;fill-rule:nonzero;stroke:none"
             id="path182"
             inkscape:connector-curvature="0" /></g><g
           id="g184"
           transform="translate(396.5005,762.2417)"><path
             d="m 0,0 -57.303,-57.308 14.054,0 L 14.056,0 0,0 z"
             style="fill:#273644;fill-opacity:1;fill-rule:nonzero;stroke:none"
             id="path186"
             inkscape:connector-curvature="0" /></g><g
           id="g188"
           transform="translate(425.9653,762.2417)"><path
             d="m 0,0 -57.305,-57.308 14.055,0 L 14.053,0 0,0 z"
             style="fill:#273644;fill-opacity:1;fill-rule:nonzero;stroke:none"
             id="path190"
             inkscape:connector-curvature="0" /></g><g
           id="g192"
           transform="translate(455.4302,762.2417)"><path
             d="m 0,0 -57.306,-57.308 14.056,0 L 14.054,0 0,0 z"
             style="fill:#273644;fill-opacity:1;fill-rule:nonzero;stroke:none"
             id="path194"
             inkscape:connector-curvature="0" /></g><g
           id="g196"
           transform="translate(484.895,762.2417)"><path
             d="m 0,0 -57.306,-57.308 14.054,0 L 14.056,0 0,0 z"
             style="fill:#273644;fill-opacity:1;fill-rule:nonzero;stroke:none"
             id="path198"
             inkscape:connector-curvature="0" /></g><g
           id="g200"
           transform="translate(956.3516,762.2417)"><path
             d="m 0,0 -57.307,-57.308 14.055,0 L 14.055,0 0,0 z"
             style="fill:#273644;fill-opacity:1;fill-rule:nonzero;stroke:none"
             id="path202"
             inkscape:connector-curvature="0" /></g><g
           id="g204"
           transform="translate(985.8164,762.2417)"><path
             d="m 0,0 -57.307,-57.308 14.055,0 L 14.058,0 0,0 z"
             style="fill:#273644;fill-opacity:1;fill-rule:nonzero;stroke:none"
             id="path206"
             inkscape:connector-curvature="0" /></g><g
           id="g208"
           transform="translate(972.0332,704.9336)"><path
             d="m 0,0 41.576,41.579 0,14.056 L -14.059,0 0,0 z"
             style="fill:#273644;fill-opacity:1;fill-rule:nonzero;stroke:none"
             id="path210"
             inkscape:connector-curvature="0" /></g><g
           id="g212"
           transform="translate(1001.4951,704.9336)"><path
             d="m 0,0 12.114,12.113 0,14.055 L -14.054,0 0,0 z"
             style="fill:#273644;fill-opacity:1;fill-rule:nonzero;stroke:none"
             id="path214"
             inkscape:connector-curvature="0" /></g><g
           id="g216"
           transform="translate(750.0889,762.2417)"><path
             d="m 0,0 -57.308,-57.308 14.055,0 L 14.054,0 0,0 z"
             style="fill:#273644;fill-opacity:1;fill-rule:nonzero;stroke:none"
             id="path218"
             inkscape:connector-curvature="0" /></g><g
           id="g220"
           transform="translate(779.5537,762.2417)"><path
             d="m 0,0 -57.309,-57.308 14.057,0 L 14.056,0 0,0 z"
             style="fill:#273644;fill-opacity:1;fill-rule:nonzero;stroke:none"
             id="path222"
             inkscape:connector-curvature="0" /></g><g
           id="g224"
           transform="translate(809.0186,762.2417)"><path
             d="m 0,0 -57.306,-57.308 14.054,0 L 14.056,0 0,0 z"
             style="fill:#273644;fill-opacity:1;fill-rule:nonzero;stroke:none"
             id="path226"
             inkscape:connector-curvature="0" /></g><g
           id="g228"
           transform="translate(838.4873,762.2417)"><path
             d="m 0,0 -57.306,-57.308 14.055,0 L 14.055,0 0,0 z"
             style="fill:#273644;fill-opacity:1;fill-rule:nonzero;stroke:none"
             id="path230"
             inkscape:connector-curvature="0" /></g><g
           id="g232"
           transform="translate(867.9521,762.2417)"><path
             d="m 0,0 -57.308,-57.308 14.057,0 L 14.054,0 0,0 z"
             style="fill:#273644;fill-opacity:1;fill-rule:nonzero;stroke:none"
             id="path234"
             inkscape:connector-curvature="0" /></g><g
           id="g236"
           transform="translate(897.418,762.2417)"><path
             d="m 0,0 -57.306,-57.308 14.055,0 L 14.055,0 0,0 z"
             style="fill:#273644;fill-opacity:1;fill-rule:nonzero;stroke:none"
             id="path238"
             inkscape:connector-curvature="0" /></g><g
           id="g240"
           transform="translate(926.8848,762.2417)"><path
             d="m 0,0 -57.308,-57.308 14.056,0 L 14.059,0 0,0 z"
             style="fill:#273644;fill-opacity:1;fill-rule:nonzero;stroke:none"
             id="path242"
             inkscape:connector-curvature="0" /></g><path
           d="m 6.954,8.504 1032.857,0 0,17.17 -1032.857,0 0,-17.17 z"
           style="fill:#273644;fill-opacity:1;fill-rule:nonzero;stroke:none"
           id="path244"
           inkscape:connector-curvature="0" /><g
           id="g246"
           transform="translate(225.4722,31.8848)"><path
             d="m 0,0 c 0.122,0 0.244,0.007 0.367,0.021 l 13.459,1.607 c 1.672,0.198 2.868,1.718 2.668,3.388 -0.202,1.672 -1.723,2.862 -3.391,2.668 L -0.357,6.076 C -2.028,5.877 -3.223,4.359 -3.023,2.688 -2.838,1.139 -1.521,0 0,0"
             style="fill:#273644;fill-opacity:1;fill-rule:nonzero;stroke:none"
             id="path248"
             inkscape:connector-curvature="0" /></g><g
           id="g250"
           transform="translate(224.4658,32.7803)"><path
             d="m 0,0 c 0.079,0 0.16,0.006 0.243,0.017 1.115,0.13 1.911,1.142 1.778,2.258 L 1.5,6.648 C 1.367,7.763 0.359,8.564 -0.76,8.425 -1.875,8.295 -2.671,7.283 -2.538,6.167 L -2.017,1.793 C -1.895,0.76 -1.016,0 0,0"
             style="fill:#273644;fill-opacity:1;fill-rule:nonzero;stroke:none"
             id="path252"
             inkscape:connector-curvature="0" /></g><g
           id="g254"
           transform="translate(212.5679,104.7529)"><path
             d="m 0,0 c 0,-2.006 -2.456,-3.634 -5.484,-3.634 -3.029,0 -5.485,1.628 -5.485,3.634 0,2.008 2.456,3.631 5.485,3.631 C -2.456,3.631 0,2.008 0,0"
             style="fill:#273644;fill-opacity:1;fill-rule:nonzero;stroke:none"
             id="path256"
             inkscape:connector-curvature="0" /></g><g
           id="g258"
           transform="translate(217.0669,96.8037)"><path
             d="m 0,0 c 0,-1.219 -1.492,-2.206 -3.332,-2.206 -1.84,0 -3.331,0.987 -3.331,2.206 0,1.22 1.491,2.205 3.331,2.205 C -1.492,2.205 0,1.22 0,0"
             style="fill:#273644;fill-opacity:1;fill-rule:nonzero;stroke:none"
             id="path260"
             inkscape:connector-curvature="0" /></g><g
           id="g262"
           transform="translate(229.3857,48.5488)"><path
             d="m 0,0 c 0.997,0 1.972,0.486 2.558,1.384 0.92,1.41 0.521,3.3 -0.888,4.22 l -11.352,7.407 c -1.412,0.921 -3.3,0.522 -4.221,-0.887 -0.921,-1.411 -0.522,-3.3 0.888,-4.222 L -1.663,0.496 C -1.149,0.161 -0.572,0 0,0"
             style="fill:#273644;fill-opacity:1;fill-rule:nonzero;stroke:none"
             id="path264"
             inkscape:connector-curvature="0" /></g><g
           id="g266"
           transform="translate(217.1831,57.5283)"><path
             d="M 0,0 C 0.665,0 1.315,0.324 1.706,0.922 L 4.112,4.611 C 4.727,5.552 4.461,6.812 3.52,7.424 2.578,8.038 1.32,7.774 0.707,6.834 L -1.7,3.145 C -2.313,2.204 -2.049,0.943 -1.108,0.33 -0.764,0.106 -0.38,0 0,0"
             style="fill:#273644;fill-opacity:1;fill-rule:nonzero;stroke:none"
             id="path268"
             inkscape:connector-curvature="0" /></g><g
           id="g270"
           transform="translate(224.877,56.6826)"><path
             d="m 0,0 c 1.069,4.237 4.162,9.811 8.215,14.664 0.614,-0.72 1.364,-1.468 2.26,-2.24 3.14,-2.71 7.682,-5.435 12.783,-7.679 6.251,-2.746 12.566,-4.388 16.893,-4.388 0.628,0 1.185,0.038 1.69,0.101 1.393,-2.563 3.999,-5.953 8.813,-10.199 1.264,-1.113 1.385,-3.04 0.27,-4.305 -0.602,-0.683 -1.443,-1.032 -2.288,-1.032 -0.716,0 -1.436,0.253 -2.015,0.763 -2.319,2.043 -4.21,3.963 -5.767,5.764 -0.096,-0.584 -0.207,-1.144 -0.337,-1.666 C 37.958,-20.363 26.812,-26.301 15.625,-23.481 4.437,-20.659 -2.559,-10.147 0,0"
             style="fill:#273644;fill-opacity:1;fill-rule:nonzero;stroke:none"
             id="path272"
             inkscape:connector-curvature="0" /></g><g
           id="g274"
           transform="translate(241.0742,86.208)"><path
             d="m 0,0 c 0.748,1.697 2.324,2.648 3.523,2.121 1.2,-0.525 1.567,-2.33 0.82,-4.03 C 3.596,-3.607 2.02,-4.56 0.82,-4.032 -0.379,-3.504 -0.746,-1.699 0,0 m 8.296,-7.479 c 0.403,0.916 1.69,0.388 3.259,-0.3 1.571,-0.692 2.829,-1.283 2.426,-2.199 -0.401,-0.914 -2.001,-1.1 -3.57,-0.41 -1.569,0.691 -2.516,1.993 -2.115,2.909 m 14.972,-2.747 c 0.746,1.702 2.323,2.65 3.523,2.124 1.198,-0.526 1.566,-2.333 0.82,-4.03 -0.747,-1.701 -2.325,-2.651 -3.525,-2.125 -1.198,0.528 -1.565,2.334 -0.818,4.031 m -29.891,-3.073 c 0.541,-0.671 1.254,-1.42 2.227,-2.263 2.994,-2.58 7.353,-5.194 12.275,-7.357 6.009,-2.64 12.016,-4.214 16.075,-4.214 0.272,0 0.532,0.006 0.782,0.023 1.675,0.099 2.816,0.525 3.105,1.179 l 6.952,15.824 c 3.157,7.184 -2.276,16.546 -12.112,20.869 -3.232,1.419 -6.681,2.17 -9.973,2.17 -6.387,0 -11.595,-2.821 -13.59,-7.363 l -6.953,-15.821 c -0.235,-0.536 0.037,-1.587 1.212,-3.047"
             style="fill:#273644;fill-opacity:1;fill-rule:nonzero;stroke:none"
             id="path276"
             inkscape:connector-curvature="0" /></g><g
           id="g278"
           transform="translate(198.4175,155.9883)"><path
             d="M 0,0 0,-34.983"
             style="fill:#273644;fill-opacity:1;fill-rule:nonzero;stroke:none"
             id="path280"
             inkscape:connector-curvature="0" /></g><g
           id="g282"
           transform="translate(200.9585,144.3135)"><path
             d="M 0,0 0,10.105 C 3.495,8.057 9.867,4.729 14.402,4.729 c 6.55,0 9.827,3.111 9.827,6.946 0,3.837 -3.277,6.948 -9.827,6.948 -6.549,0 -16.943,-6.948 -16.943,-6.948 0,0 -10.392,6.948 -16.942,6.948 -6.551,0 -9.827,-3.109 -9.827,-6.948 0,-3.835 3.276,-6.946 9.827,-6.946 4.535,0 10.907,3.328 14.401,5.376 L -5.082,0 c -12.659,-0.844 -22.541,-7.92 -22.541,-16.524 0,-9.177 11.23,-16.617 25.083,-16.617 13.85,0 25.081,7.44 25.081,16.617 C 22.541,-7.92 12.657,-0.844 0,0"
             style="fill:#273644;fill-opacity:1;fill-rule:nonzero;stroke:none"
             id="path284"
             inkscape:connector-curvature="0" /></g><g
           id="g286"
           transform="translate(35.0806,32.7803)"><path
             d="m 0,0 c 1.685,0 3.05,1.363 3.05,3.051 l 0,13.554 c 0,1.686 -1.365,3.051 -3.05,3.051 -1.683,0 -3.05,-1.365 -3.05,-3.051 l 0,-13.554 C -3.05,1.363 -1.683,0 0,0"
             style="fill:#273644;fill-opacity:1;fill-rule:nonzero;stroke:none"
             id="path288"
             inkscape:connector-curvature="0" /></g><g
           id="g290"
           transform="translate(35.0806,32.7803)"><path
             d="m 0,0 4.405,0 c 1.122,0 2.032,0.909 2.032,2.034 0,1.122 -0.91,2.032 -2.032,2.032 L 0,4.066 c -1.123,0 -2.033,-0.91 -2.033,-2.032 C -2.033,0.909 -1.123,0 0,0"
             style="fill:#273644;fill-opacity:1;fill-rule:nonzero;stroke:none"
             id="path292"
             inkscape:connector-curvature="0" /></g><g
           id="g294"
           transform="translate(58.4629,32.7803)"><path
             d="m 0,0 c 1.683,0 3.05,1.363 3.05,3.051 l 0,13.554 c 0,1.686 -1.367,3.051 -3.05,3.051 -1.685,0 -3.05,-1.365 -3.05,-3.051 l 0,-13.554 C -3.05,1.363 -1.685,0 0,0"
             style="fill:#273644;fill-opacity:1;fill-rule:nonzero;stroke:none"
             id="path296"
             inkscape:connector-curvature="0" /></g><g
           id="g298"
           transform="translate(58.4629,32.7803)"><path
             d="m 0,0 4.403,0 c 1.124,0 2.035,0.909 2.035,2.034 0,1.122 -0.911,2.032 -2.035,2.032 L 0,4.066 c -1.123,0 -2.034,-0.91 -2.034,-2.032 C -2.034,0.909 -1.123,0 0,0"
             style="fill:#273644;fill-opacity:1;fill-rule:nonzero;stroke:none"
             id="path300"
             inkscape:connector-curvature="0" /></g><g
           id="g302"
           transform="translate(83.416,68.9561)"><path
             d="m 0,0 c 0,2.038 -1.227,6.227 -17.804,4.323 -3.654,-2.676 -11.765,-4.094 -19.519,-4.094 -7.204,0 -14.718,1.225 -18.679,3.542 -0.011,-0.008 -0.023,-0.014 -0.031,-0.024 -12.976,-13.957 -8.071,-22.429 -7.469,-23.348 0.586,-0.895 1.561,-1.379 2.554,-1.379 0.574,0 1.153,0.161 1.669,0.5 1.41,0.92 1.803,2.811 0.881,4.219 -0.019,0.028 -0.939,1.813 0.083,5.278 0.689,-9.897 9.736,-17.74 20.823,-17.74 11.538,0 20.892,8.486 20.892,18.95 0,2.275 -0.443,5.039 -1.255,7.968 14.794,1.531 14.459,-1.907 14.481,-1.957 -0.05,0.11 0,0 0,0 L 0,0 z"
             style="fill:#273644;fill-opacity:1;fill-rule:nonzero;stroke:none"
             id="path304"
             inkscape:connector-curvature="0" /></g><g
           id="g306"
           transform="translate(34.7422,92.3936)"><path
             d="m 0,0 c 1.31,0 2.372,-1.506 2.372,-3.362 0,-1.855 -1.062,-3.36 -2.372,-3.36 -1.31,0 -2.372,1.505 -2.372,3.36 C -2.372,-1.506 -1.31,0 0,0 m 14.077,-5.836 c 1.714,0 3.105,-0.035 3.105,-1.035 0,-0.997 -1.391,-1.811 -3.105,-1.811 -1.715,0 -3.104,0.814 -3.104,1.811 0,1 1.389,1.035 3.104,1.035 M 25.414,0 c 1.311,0 2.372,-1.506 2.372,-3.362 0,-1.855 -1.061,-3.36 -2.372,-3.36 -1.31,0 -2.372,1.505 -2.372,3.36 0,1.856 1.062,3.362 2.372,3.362 M -5.881,-18.179 c 3.052,-1.59 9.071,-2.996 17.232,-2.996 7.925,0 13.823,1.327 16.954,2.859 1.638,0.802 2.532,1.66 2.532,2.418 l 0,17.28 c 0,7.847 -8.742,14.231 -19.486,14.231 -10.744,0 -19.483,-6.384 -19.483,-14.231 l 0,-17.28 c 0,-0.716 0.788,-1.517 2.251,-2.281"
             style="fill:#273644;fill-opacity:1;fill-rule:nonzero;stroke:none"
             id="path308"
             inkscape:connector-curvature="0" /></g><g
           id="g310"
           transform="translate(113.8315,72.1357)"><path
             d="M 0,0 C -0.138,0.137 -0.138,0.357 -0.002,0.494 0.134,0.63 0.356,0.63 0.492,0.491 0.628,0.357 0.628,0.137 0.492,0 0.357,-0.135 0.134,-0.135 0,0"
             style="fill:#273644;fill-opacity:1;fill-rule:nonzero;stroke:none"
             id="path312"
             inkscape:connector-curvature="0" /></g><g
           id="g314"
           transform="translate(112.251,78.4189)"><path
             d="m 0,0 c -0.138,0.137 -0.138,0.355 -0.001,0.491 0.137,0.138 0.356,0.138 0.494,0 C 0.628,0.355 0.628,0.133 0.493,0 0.356,-0.138 0.136,-0.136 0,0"
             style="fill:#273644;fill-opacity:1;fill-rule:nonzero;stroke:none"
             id="path316"
             inkscape:connector-curvature="0" /></g><g
           id="g318"
           transform="translate(108.9541,84.376)"><path
             d="M 0,0 C -0.137,0.139 -0.137,0.359 -0.001,0.496 0.135,0.631 0.356,0.631 0.492,0.493 0.629,0.359 0.629,0.139 0.492,0 0.357,-0.133 0.135,-0.133 0,0"
             style="fill:#273644;fill-opacity:1;fill-rule:nonzero;stroke:none"
             id="path320"
             inkscape:connector-curvature="0" /></g><g
           id="g322"
           transform="translate(104.2026,89.1143)"><path
             d="m 0,0 c -0.137,0.138 -0.137,0.356 -0.001,0.493 0.135,0.136 0.356,0.136 0.493,0 C 0.627,0.356 0.627,0.136 0.492,0 0.355,-0.136 0.134,-0.136 0,0"
             style="fill:#273644;fill-opacity:1;fill-rule:nonzero;stroke:none"
             id="path324"
             inkscape:connector-curvature="0" /></g><g
           id="g326"
           transform="translate(115.8862,81.0088)"><path
             d="m 0,0 c -0.138,0.138 -0.138,0.359 -0.001,0.493 0.136,0.138 0.355,0.138 0.492,0 C 0.629,0.359 0.629,0.136 0.491,0 0.357,-0.136 0.135,-0.135 0,0"
             style="fill:#273644;fill-opacity:1;fill-rule:nonzero;stroke:none"
             id="path328"
             inkscape:connector-curvature="0" /></g><g
           id="g330"
           transform="translate(99.2031,94.6709)"><path
             d="m 0,0 c -0.137,0.138 -0.137,0.359 -0.002,0.493 0.136,0.139 0.357,0.139 0.493,0 C 0.627,0.359 0.627,0.137 0.491,0 0.355,-0.137 0.134,-0.133 0,0"
             style="fill:#273644;fill-opacity:1;fill-rule:nonzero;stroke:none"
             id="path332"
             inkscape:connector-curvature="0" /></g><g
           id="g334"
           transform="translate(106.1709,92.7549)"><path
             d="m 0,0 c -0.135,0.138 -0.135,0.358 0,0.493 0.135,0.138 0.357,0.138 0.494,0 C 0.629,0.358 0.629,0.136 0.494,0 0.357,-0.137 0.135,-0.134 0,0"
             style="fill:#273644;fill-opacity:1;fill-rule:nonzero;stroke:none"
             id="path336"
             inkscape:connector-curvature="0" /></g><g
           id="g338"
           transform="translate(112.0571,87.8506)"><path
             d="m 0,0 c -0.135,0.136 -0.135,0.356 -0.002,0.491 0.137,0.138 0.359,0.138 0.494,0 C 0.629,0.356 0.629,0.134 0.492,0 0.357,-0.137 0.135,-0.136 0,0"
             style="fill:#273644;fill-opacity:1;fill-rule:nonzero;stroke:none"
             id="path340"
             inkscape:connector-curvature="0" /></g><g
           id="g342"
           transform="translate(118.2451,72.7979)"><path
             d="M 0,0 C -0.135,0.138 -0.135,0.356 0,0.493 0.137,0.63 0.357,0.63 0.494,0.492 0.629,0.356 0.629,0.138 0.494,0 0.357,-0.135 0.137,-0.135 0,0"
             style="fill:#273644;fill-opacity:1;fill-rule:nonzero;stroke:none"
             id="path344"
             inkscape:connector-curvature="0" /></g><g
           id="g346"
           transform="translate(98.7666,91.7627)"><path
             d="m 0,0 c -0.138,0.137 -0.138,0.357 -0.002,0.493 0.136,0.138 0.357,0.138 0.493,0 C 0.628,0.357 0.628,0.135 0.491,0 0.356,-0.136 0.134,-0.135 0,0"
             style="fill:#273644;fill-opacity:1;fill-rule:nonzero;stroke:none"
             id="path348"
             inkscape:connector-curvature="0" /></g><g
           id="g350"
           transform="translate(124.564,72.4307)"><path
             d="m 0,0 c -0.203,0.204 -0.203,0.537 0,0.74 0.206,0.203 0.537,0.203 0.743,0 C 0.945,0.537 0.945,0.204 0.743,0 0.537,-0.203 0.206,-0.203 0,0"
             style="fill:#273644;fill-opacity:1;fill-rule:nonzero;stroke:none"
             id="path352"
             inkscape:connector-curvature="0" /></g><g
           id="g354"
           transform="translate(117.3071,92.1924)"><path
             d="m 0,0 c -0.204,0.203 -0.204,0.535 0,0.74 0.205,0.203 0.536,0.203 0.74,0 C 0.943,0.535 0.943,0.203 0.74,0 0.536,-0.205 0.205,-0.205 0,0"
             style="fill:#273644;fill-opacity:1;fill-rule:nonzero;stroke:none"
             id="path356"
             inkscape:connector-curvature="0" /></g><g
           id="g358"
           transform="translate(109.4116,97.8154)"><path
             d="m 0,0 c -0.204,0.204 -0.204,0.535 0,0.738 0.204,0.206 0.536,0.206 0.741,0 C 0.944,0.535 0.944,0.204 0.741,0 0.536,-0.203 0.204,-0.203 0,0"
             style="fill:#273644;fill-opacity:1;fill-rule:nonzero;stroke:none"
             id="path360"
             inkscape:connector-curvature="0" /></g><g
           id="g362"
           transform="translate(100.1133,98.9229)"><path
             d="m 0,0 c -0.204,0.205 -0.204,0.535 0,0.739 0.204,0.205 0.536,0.205 0.741,0 C 0.944,0.535 0.944,0.205 0.741,0 0.536,-0.204 0.204,-0.204 0,0"
             style="fill:#273644;fill-opacity:1;fill-rule:nonzero;stroke:none"
             id="path364"
             inkscape:connector-curvature="0" /></g><g
           id="g366"
           transform="translate(121.6143,83.5889)"><path
             d="m 0,0 c -0.204,0.205 -0.204,0.535 0,0.74 0.204,0.204 0.537,0.204 0.74,0 C 0.944,0.535 0.944,0.205 0.74,0 0.537,-0.203 0.204,-0.203 0,0"
             style="fill:#273644;fill-opacity:1;fill-rule:nonzero;stroke:none"
             id="path368"
             inkscape:connector-curvature="0" /></g><g
           id="g370"
           transform="translate(132.1021,69.998)"><path
             d="m 0,0 c -0.307,0.305 -0.307,0.801 0,1.11 0.307,0.304 0.804,0.304 1.109,0 C 1.416,0.801 1.415,0.305 1.109,0 0.804,-0.306 0.307,-0.309 0,0"
             style="fill:#273644;fill-opacity:1;fill-rule:nonzero;stroke:none"
             id="path372"
             inkscape:connector-curvature="0" /></g><g
           id="g374"
           transform="translate(129.3335,84.9014)"><path
             d="m 0,0 c -0.307,0.307 -0.307,0.805 0,1.109 0.305,0.309 0.801,0.309 1.11,0 C 1.416,0.805 1.415,0.307 1.11,0.002 0.801,-0.307 0.305,-0.307 0,0"
             style="fill:#273644;fill-opacity:1;fill-rule:nonzero;stroke:none"
             id="path376"
             inkscape:connector-curvature="0" /></g><g
           id="g378"
           transform="translate(101.8125,104.1895)"><path
             d="m 0,0 c -0.307,0.307 -0.307,0.806 0,1.11 0.307,0.309 0.803,0.309 1.11,0 C 1.417,0.806 1.415,0.307 1.11,0.003 0.803,-0.305 0.307,-0.305 0,0"
             style="fill:#273644;fill-opacity:1;fill-rule:nonzero;stroke:none"
             id="path380"
             inkscape:connector-curvature="0" /></g><g
           id="g382"
           transform="translate(114.0469,103.6309)"><path
             d="m 0,0 c -0.307,0.31 -0.307,0.803 0,1.112 0.308,0.306 0.804,0.306 1.111,0 C 1.417,0.803 1.417,0.31 1.111,0 0.804,-0.304 0.308,-0.305 0,0"
             style="fill:#273644;fill-opacity:1;fill-rule:nonzero;stroke:none"
             id="path384"
             inkscape:connector-curvature="0" /></g><g
           id="g386"
           transform="translate(124.9307,96.3828)"><path
             d="m 0,0 c -0.308,0.308 -0.308,0.804 0,1.11 0.307,0.309 0.803,0.309 1.109,0 0.307,-0.306 0.307,-0.802 0,-1.107 C 0.803,-0.305 0.307,-0.305 0,0"
             style="fill:#273644;fill-opacity:1;fill-rule:nonzero;stroke:none"
             id="path388"
             inkscape:connector-curvature="0" /></g><g
           id="g390"
           transform="translate(148.1133,54.8027)"><path
             d="m 0,0 c -0.46,0.457 -0.46,1.204 0,1.664 0.459,0.459 1.204,0.459 1.664,0 C 2.123,1.205 2.123,0.457 1.664,0 1.204,-0.462 0.459,-0.462 0,0"
             style="fill:#273644;fill-opacity:1;fill-rule:nonzero;stroke:none"
             id="path392"
             inkscape:connector-curvature="0" /></g><g
           id="g394"
           transform="translate(150.3369,78.7139)"><path
             d="m 0,0 c -0.459,0.459 -0.46,1.205 0.002,1.665 0.458,0.458 1.203,0.458 1.662,0 C 2.124,1.205 2.124,0.459 1.666,0 1.205,-0.46 0.46,-0.46 0,0"
             style="fill:#273644;fill-opacity:1;fill-rule:nonzero;stroke:none"
             id="path396"
             inkscape:connector-curvature="0" /></g><g
           id="g398"
           transform="translate(148.2271,100.2715)"><path
             d="m 0,0 c -0.458,0.459 -0.459,1.204 0.001,1.664 0.458,0.459 1.203,0.459 1.665,0 C 2.124,1.204 2.124,0.459 1.667,0 1.204,-0.46 0.459,-0.46 0,0"
             style="fill:#273644;fill-opacity:1;fill-rule:nonzero;stroke:none"
             id="path400"
             inkscape:connector-curvature="0" /></g><g
           id="g402"
           transform="translate(128.0503,114.916)"><path
             d="m 0,0 c -0.459,0.459 -0.46,1.204 0.002,1.664 0.458,0.459 1.203,0.459 1.664,0 C 2.125,1.206 2.125,0.459 1.667,0 1.205,-0.46 0.46,-0.46 0,0"
             style="fill:#273644;fill-opacity:1;fill-rule:nonzero;stroke:none"
             id="path404"
             inkscape:connector-curvature="0" /></g><g
           id="g406"
           transform="translate(108.8535,116.5)"><path
             d="m 0,0 c -0.458,0.459 -0.459,1.203 0.002,1.665 0.459,0.458 1.205,0.458 1.665,0 C 2.125,1.203 2.125,0.459 1.667,0 1.207,-0.459 0.461,-0.459 0,0"
             style="fill:#273644;fill-opacity:1;fill-rule:nonzero;stroke:none"
             id="path408"
             inkscape:connector-curvature="0" /></g><g
           id="g410"
           transform="translate(104.5186,110.0557)"><path
             d="m 0,0 c -0.458,0.459 -0.458,1.202 0.001,1.665 0.459,0.459 1.205,0.459 1.665,0 C 2.125,1.205 2.125,0.459 1.667,0 1.206,-0.46 0.46,-0.46 0,0"
             style="fill:#273644;fill-opacity:1;fill-rule:nonzero;stroke:none"
             id="path412"
             inkscape:connector-curvature="0" /></g><g
           id="g414"
           transform="translate(120.1152,109.4512)"><path
             d="m 0,0 c -0.458,0.461 -0.46,1.206 0.001,1.664 0.458,0.458 1.203,0.458 1.663,0 C 2.125,1.206 2.125,0.461 1.667,0 1.204,-0.46 0.459,-0.46 0,0"
             style="fill:#273644;fill-opacity:1;fill-rule:nonzero;stroke:none"
             id="path416"
             inkscape:connector-curvature="0" /></g><g
           id="g418"
           transform="translate(138.8389,83.5918)"><path
             d="m 0,0 c -0.459,0.463 -0.46,1.206 0.001,1.666 0.458,0.46 1.205,0.46 1.665,0 C 2.125,1.206 2.125,0.463 1.666,0 1.206,-0.457 0.459,-0.457 0,0"
             style="fill:#273644;fill-opacity:1;fill-rule:nonzero;stroke:none"
             id="path420"
             inkscape:connector-curvature="0" /></g><g
           id="g422"
           transform="translate(140.0776,64.3643)"><path
             d="m 0,0 c -0.458,0.459 -0.458,1.204 0.001,1.664 0.458,0.458 1.206,0.458 1.663,0 C 2.125,1.205 2.125,0.459 1.666,0 1.207,-0.461 0.459,-0.461 0,0"
             style="fill:#273644;fill-opacity:1;fill-rule:nonzero;stroke:none"
             id="path424"
             inkscape:connector-curvature="0" /></g><g
           id="g426"
           transform="translate(135.0576,99.3135)"><path
             d="m 0,0 c -0.458,0.46 -0.458,1.206 0.001,1.666 0.459,0.459 1.206,0.459 1.665,0 C 2.125,1.206 2.125,0.46 1.667,0 1.207,-0.458 0.46,-0.458 0,0"
             style="fill:#273644;fill-opacity:1;fill-rule:nonzero;stroke:none"
             id="path428"
             inkscape:connector-curvature="0" /></g><g
           id="g430"
           transform="translate(162.9648,68.2461)"><path
             d="m 0,0 c -0.691,0.691 -0.691,1.811 0,2.498 0.688,0.689 1.807,0.689 2.496,0 C 3.186,1.808 3.186,0.691 2.496,0 1.807,-0.689 0.69,-0.689 0,0"
             style="fill:#273644;fill-opacity:1;fill-rule:nonzero;stroke:none"
             id="path432"
             inkscape:connector-curvature="0" /></g><g
           id="g434"
           transform="translate(163.9087,97.4805)"><path
             d="m 0,0 c -0.689,0.689 -0.689,1.808 0,2.497 0.69,0.689 1.807,0.689 2.497,0 C 3.187,1.806 3.187,0.689 2.497,0 1.807,-0.689 0.69,-0.689 0,0"
             style="fill:#273644;fill-opacity:1;fill-rule:nonzero;stroke:none"
             id="path436"
             inkscape:connector-curvature="0" /></g><g
           id="g438"
           transform="translate(137.2251,118.6113)"><path
             d="m 0,0 c -0.69,0.688 -0.69,1.807 0,2.496 0.69,0.692 1.807,0.692 2.497,0 C 3.187,1.807 3.187,0.688 2.497,0 1.807,-0.688 0.69,-0.688 0,0"
             style="fill:#273644;fill-opacity:1;fill-rule:nonzero;stroke:none"
             id="path440"
             inkscape:connector-curvature="0" /></g><g
           id="g442"
           transform="translate(114.3765,122.4385)"><path
             d="m 0,0 c -0.689,0.691 -0.689,1.81 0,2.499 0.688,0.689 1.808,0.689 2.498,0 C 3.186,1.81 3.186,0.691 2.498,0 1.808,-0.687 0.69,-0.687 0,0"
             style="fill:#273644;fill-opacity:1;fill-rule:nonzero;stroke:none"
             id="path444"
             inkscape:connector-curvature="0" /></g><g
           id="g446"
           transform="translate(147.9121,120.0186)"><path
             d="m 0,0 c -1.034,1.035 -1.034,2.711 0,3.744 1.034,1.035 2.711,1.035 3.744,0 1.034,-1.031 1.034,-2.709 0,-3.74 C 2.71,-1.035 1.034,-1.035 0,0"
             style="fill:#273644;fill-opacity:1;fill-rule:nonzero;stroke:none"
             id="path448"
             inkscape:connector-curvature="0" /></g><g
           id="g450"
           transform="translate(121.5435,127.6992)"><path
             d="m 0,0 c -1.034,1.034 -1.034,2.71 0.001,3.744 1.034,1.034 2.71,1.034 3.744,0 1.034,-1.032 1.034,-2.71 0,-3.742 C 2.711,-1.036 1.035,-1.036 0,0"
             style="fill:#273644;fill-opacity:1;fill-rule:nonzero;stroke:none"
             id="path452"
             inkscape:connector-curvature="0" /></g><g
           id="g454"
           transform="translate(103.3662,79.791)"><path
             d="m 0,0 c -2.314,3.26 -5.881,4.701 -7.967,3.218 -1.485,-1.053 -1.797,-3.307 -1.032,-5.693 -3.175,-1.618 -8.223,-4.337 -15.586,-8.702 -7.489,-4.44 -7.297,-13.418 -7.075,-23.813 l 0.046,-2.237 c 0.061,-3.42 -4.894,-4.842 -4.934,-4.855 l 1.278,-4.736 c 3.23,0.87 8.666,3.889 8.562,9.679 l -0.045,2.254 c -0.226,10.543 -0.12,16.647 4.67,19.486 7.513,4.453 12.594,7.172 15.644,8.718 2.237,-2.292 5.078,-3.162 6.851,-1.902 C 2.499,-7.1 2.316,-3.259 0,0"
             style="fill:#273644;fill-opacity:1;fill-rule:nonzero;stroke:none"
             id="path456"
             inkscape:connector-curvature="0" /></g><g
           id="g458"
           transform="translate(610.6494,118.4512)"><path
             d="m 0,0 c 0,9.544 -11.683,17.282 -26.093,17.282 -14.41,0 -26.092,-7.738 -26.092,-17.282 0,-9.546 11.682,-17.283 26.092,-17.283 2.914,0 5.705,0.329 8.321,0.913 5.658,-3.011 11.765,-3.255 8.519,-1.277 -1.258,0.765 -2.077,1.899 -2.609,3.17 C -4.727,-11.391 0,-6.065 0,0"
             style="fill:#273644;fill-opacity:1;fill-rule:nonzero;stroke:none"
             id="path460"
             inkscape:connector-curvature="0" /></g><g
           id="g462"
           transform="translate(761.9072,135.7334)"><path
             d="m 0,0 c -14.411,0 -26.092,-7.738 -26.092,-17.282 0,-6.066 4.725,-11.391 11.861,-14.477 -0.53,-1.271 -1.352,-2.405 -2.61,-3.171 -3.244,-1.977 2.862,-1.733 8.521,1.278 2.614,-0.584 5.406,-0.913 8.32,-0.913 14.41,0 26.092,7.737 26.092,17.283 C 26.092,-7.738 14.41,0 0,0"
             style="fill:#273644;fill-opacity:1;fill-rule:nonzero;stroke:none"
             id="path464"
             inkscape:connector-curvature="0" /></g><g
           id="g466"
           transform="translate(767.1855,98.5361)"><path
             d="m 0,0 c -9.556,0 -17.303,-5.131 -17.303,-11.459 0,-4.02 3.135,-7.554 7.867,-9.599 -0.352,-0.844 -0.896,-1.595 -1.73,-2.103 -2.151,-1.312 1.897,-1.15 5.65,0.848 1.735,-0.387 3.584,-0.607 5.516,-0.607 9.554,0 17.301,5.133 17.301,11.461 C 17.301,-5.131 9.554,0 0,0"
             style="fill:#273644;fill-opacity:1;fill-rule:nonzero;stroke:none"
             id="path468"
             inkscape:connector-curvature="0" /></g><g
           id="g470"
           transform="translate(714.75,33.0488)"><path
             d="m 0,0 c -1.684,0 -3.05,1.366 -3.05,3.051 l 0,13.554 c 0,1.685 1.366,3.049 3.05,3.049 1.685,0 3.049,-1.364 3.049,-3.049 l 0,-13.554 C 3.049,1.366 1.685,0 0,0"
             style="fill:#273644;fill-opacity:1;fill-rule:nonzero;stroke:none"
             id="path472"
             inkscape:connector-curvature="0" /></g><g
           id="g474"
           transform="translate(714.75,33.0488)"><path
             d="m 0,0 -4.403,0 c -1.124,0 -2.034,0.91 -2.034,2.033 0,1.123 0.91,2.033 2.034,2.033 l 4.403,0 c 1.122,0 2.032,-0.91 2.032,-2.033 C 2.032,0.91 1.122,0 0,0"
             style="fill:#273644;fill-opacity:1;fill-rule:nonzero;stroke:none"
             id="path476"
             inkscape:connector-curvature="0" /></g><g
           id="g478"
           transform="translate(691.3691,33.0488)"><path
             d="m 0,0 c -1.685,0 -3.051,1.366 -3.051,3.051 l 0,13.554 c 0,1.685 1.366,3.049 3.051,3.049 1.685,0 3.05,-1.364 3.05,-3.049 l 0,-13.554 C 3.05,1.366 1.685,0 0,0"
             style="fill:#273644;fill-opacity:1;fill-rule:nonzero;stroke:none"
             id="path480"
             inkscape:connector-curvature="0" /></g><g
           id="g482"
           transform="translate(691.3691,33.0488)"><path
             d="m 0,0 -4.404,0 c -1.124,0 -2.034,0.91 -2.034,2.033 0,1.123 0.91,2.033 2.034,2.033 l 4.404,0 c 1.123,0 2.034,-0.91 2.034,-2.033 C 2.034,0.91 1.123,0 0,0"
             style="fill:#273644;fill-opacity:1;fill-rule:nonzero;stroke:none"
             id="path484"
             inkscape:connector-curvature="0" /></g><g
           id="g486"
           transform="translate(733.8408,78.6348)"><path
             d="m 0,0 c -1.182,1.205 -3.112,1.223 -4.313,0.041 -2.966,-2.909 -7.73,-6.131 -7.769,-6.039 -4.097,-2.084 -11.199,-3.182 -18.022,-3.182 -6.672,0 -13.604,1.049 -17.741,3.047 -0.074,0.033 -0.135,0.074 -0.208,0.11 -0.519,0.298 -1.917,1.184 -2.264,1.511 -1.558,1.198 -3.281,2.69 -5.178,4.553 -1.2,1.181 -3.132,1.162 -4.314,-0.041 -1.178,-1.201 -1.162,-3.132 0.041,-4.313 3.75,-3.681 7.06,-6.176 9.947,-7.855 -0.652,-2.573 -1.004,-4.988 -1.004,-7.015 0,-10.464 9.352,-18.949 20.892,-18.949 11.537,0 20.892,8.485 20.892,18.949 0,2.019 -0.355,4.422 -0.999,6.984 2.899,1.679 6.226,4.185 9.999,7.886 C 1.162,-3.132 1.179,-1.201 0,0"
             style="fill:#273644;fill-opacity:1;fill-rule:nonzero;stroke:none"
             id="path488"
             inkscape:connector-curvature="0" /></g><g
           id="g490"
           transform="translate(689.6748,92.6621)"><path
             d="m 0,0 c 1.309,0 2.372,-1.507 2.372,-3.362 0,-1.855 -1.063,-3.361 -2.372,-3.361 -1.309,0 -2.372,1.506 -2.372,3.361 C -2.372,-1.507 -1.309,0 0,0 m 11.336,-5.838 c 1.716,0 3.105,-0.032 3.105,-1.033 0,-0.998 -1.389,-1.812 -3.105,-1.812 -1.713,0 -3.106,0.814 -3.106,1.812 0,1.001 1.393,1.033 3.106,1.033 M 25.416,0 c 1.309,0 2.37,-1.507 2.37,-3.362 0,-1.855 -1.061,-3.361 -2.37,-3.361 -1.311,0 -2.375,1.506 -2.375,3.361 0,1.855 1.064,3.362 2.375,3.362 M -2.895,-18.313 c 3.127,-1.536 9.027,-2.863 16.958,-2.863 8.162,0 14.183,1.406 17.233,2.997 1.462,0.761 2.253,1.565 2.253,2.281 l 0,17.282 c 0,7.845 -8.744,14.231 -19.486,14.231 -10.745,0 -19.486,-6.386 -19.486,-14.231 l 0,-17.282 c 0,-0.758 0.894,-1.614 2.528,-2.415"
             style="fill:#273644;fill-opacity:1;fill-rule:nonzero;stroke:none"
             id="path492"
             inkscape:connector-curvature="0" /></g><g
           id="g494"
           transform="translate(621.5449,33.0488)"><path
             d="m 0,0 c 1.686,0 3.049,1.366 3.049,3.051 l 0,13.554 c 0,1.685 -1.363,3.049 -3.049,3.049 -1.684,0 -3.049,-1.364 -3.049,-3.049 l 0,-13.554 C -3.049,1.366 -1.684,0 0,0"
             style="fill:#273644;fill-opacity:1;fill-rule:nonzero;stroke:none"
             id="path496"
             inkscape:connector-curvature="0" /></g><g
           id="g498"
           transform="translate(621.5449,33.0488)"><path
             d="m 0,0 4.405,0 c 1.124,0 2.033,0.91 2.033,2.033 0,1.123 -0.909,2.033 -2.033,2.033 L 0,4.066 c -1.123,0 -2.033,-0.91 -2.033,-2.033 C -2.033,0.91 -1.123,0 0,0"
             style="fill:#273644;fill-opacity:1;fill-rule:nonzero;stroke:none"
             id="path500"
             inkscape:connector-curvature="0" /></g><g
           id="g502"
           transform="translate(644.9268,33.0488)"><path
             d="m 0,0 c 1.682,0 3.048,1.366 3.048,3.051 l 0,13.554 c 0,1.685 -1.366,3.049 -3.048,3.049 -1.685,0 -3.051,-1.364 -3.051,-3.049 l 0,-13.554 C -3.051,1.366 -1.685,0 0,0"
             style="fill:#273644;fill-opacity:1;fill-rule:nonzero;stroke:none"
             id="path504"
             inkscape:connector-curvature="0" /></g><g
           id="g506"
           transform="translate(644.9268,33.0488)"><path
             d="m 0,0 4.403,0 c 1.122,0 2.035,0.91 2.035,2.033 0,1.123 -0.913,2.033 -2.035,2.033 L 0,4.066 c -1.124,0 -2.034,-0.91 -2.034,-2.033 C -2.034,0.91 -1.124,0 0,0"
             style="fill:#273644;fill-opacity:1;fill-rule:nonzero;stroke:none"
             id="path508"
             inkscape:connector-curvature="0" /></g><g
           id="g510"
           transform="translate(602.4561,78.6348)"><path
             d="m 0,0 c 1.179,1.205 3.112,1.223 4.312,0.041 2.964,-2.909 7.731,-6.131 7.769,-6.039 4.095,-2.084 11.198,-3.182 18.022,-3.182 6.669,0 13.604,1.049 17.74,3.047 0.074,0.033 0.136,0.074 0.208,0.11 0.52,0.298 1.917,1.184 2.262,1.511 1.56,1.198 3.283,2.69 5.18,4.553 1.201,1.181 3.132,1.162 4.314,-0.041 1.178,-1.201 1.162,-3.132 -0.041,-4.313 -3.752,-3.681 -7.062,-6.176 -9.947,-7.855 0.65,-2.573 1.004,-4.988 1.004,-7.015 0,-10.464 -9.354,-18.949 -20.891,-18.949 -11.536,0 -20.892,8.485 -20.892,18.949 0,2.019 0.353,4.422 0.997,6.984 C 7.139,-10.52 3.812,-8.014 0.038,-4.313 -1.162,-3.132 -1.182,-1.201 0,0"
             style="fill:#273644;fill-opacity:1;fill-rule:nonzero;stroke:none"
             id="path512"
             inkscape:connector-curvature="0" /></g><g
           id="g514"
           transform="translate(648.9932,89.2998)"><path
             d="m 0,0 c 0,-1.854 -1.064,-3.36 -2.375,-3.36 -1.309,0 -2.37,1.506 -2.37,3.36 0,1.855 1.061,3.362 2.37,3.362 C -1.064,3.362 0,1.855 0,0 m -10.605,-3.509 c 0,-0.998 -1.39,-1.811 -3.106,-1.811 -1.713,0 -3.104,0.813 -3.104,1.811 0,1.001 1.391,1.033 3.104,1.033 1.716,0 3.106,-0.032 3.106,-1.033 M -25.415,0 c 0,-1.854 -1.062,-3.36 -2.372,-3.36 -1.309,0 -2.37,1.506 -2.37,3.36 0,1.855 1.061,3.362 2.37,3.362 1.31,0 2.372,-1.507 2.372,-3.362 m 28.463,-12.536 0,17.282 c 0,7.846 -8.741,14.232 -19.483,14.232 -10.744,0 -19.485,-6.386 -19.485,-14.232 l 0,-17.282 c 0,-0.716 0.788,-1.52 2.252,-2.28 3.051,-1.591 9.072,-2.997 17.233,-2.997 7.928,0 13.828,1.327 16.956,2.862 1.635,0.802 2.527,1.657 2.527,2.415"
             style="fill:#273644;fill-opacity:1;fill-rule:nonzero;stroke:none"
             id="path516"
             inkscape:connector-curvature="0" /></g><g
           id="g518"
           transform="translate(22.1802,144.0088)"><path
             d="M 0,0 5.618,-7.437 11.715,0.032 10.28,1.47 1.468,1.47 0,0 z m -3.556,0.248 3.912,3.91 11.038,0 3.943,-3.942 -8.72,-10.68 -1.082,-1.326 -9.091,12.038 z"
             style="fill:#273644;fill-opacity:1;fill-rule:nonzero;stroke:none"
             id="path520"
             inkscape:connector-curvature="0" /></g><g
           id="g522"
           transform="translate(862.6338,136.0342)"><path
             d="m 0,0 5.617,-7.434 6.098,7.468 -1.435,1.435 -8.811,0 L 0,0 z m -3.558,0.248 3.912,3.911 11.04,0 L 15.338,0.214 6.616,-10.465 5.533,-11.79 -3.558,0.248 z"
             style="fill:#273644;fill-opacity:1;fill-rule:nonzero;stroke:none"
             id="path524"
             inkscape:connector-curvature="0" /></g><g
           id="g526"
           transform="translate(560.4561,60.8027)"><path
             d="m 0,0 5.619,-7.435 6.097,7.468 -1.436,1.436 -8.811,0 L 0,0 z m -3.556,0.248 3.912,3.91 11.038,0 3.944,-3.945 -8.72,-10.679 -1.083,-1.325 -9.091,12.039 z"
             style="fill:#273644;fill-opacity:1;fill-rule:nonzero;stroke:none"
             id="path528"
             inkscape:connector-curvature="0" /></g><g
           id="g530"
           transform="translate(304.1338,121.1484)"><path
             d="m 0,0 5.619,-7.435 6.097,7.468 -1.435,1.436 -8.812,0 L 0,0 z m -3.556,0.248 3.913,3.91 11.037,0 3.944,-3.945 -8.72,-10.678 -1.083,-1.325 -9.091,12.038 z"
             style="fill:#273644;fill-opacity:1;fill-rule:nonzero;stroke:none"
             id="path532"
             inkscape:connector-curvature="0" /></g><g
           id="g534"
           transform="translate(256.9546,151.001)"><path
             d="M 0,0 C -5.026,-0.894 -5.443,-1.62 -5.956,-10.372 -6.468,-1.62 -6.885,-0.894 -11.912,0 -6.885,0.894 -6.468,1.617 -5.956,10.369 -5.443,1.617 -5.026,0.894 0,0"
             style="fill:#273644;fill-opacity:1;fill-rule:nonzero;stroke:none"
             id="path536"
             inkscape:connector-curvature="0" /></g><g
           id="g538"
           transform="translate(269.0972,136.6816)"><path
             d="M 0,0 C -3.224,-0.575 -3.491,-1.039 -3.822,-6.654 -4.15,-1.039 -4.417,-0.575 -7.642,0 -4.417,0.571 -4.15,1.037 -3.822,6.65 -3.491,1.037 -3.224,0.571 0,0"
             style="fill:#273644;fill-opacity:1;fill-rule:nonzero;stroke:none"
             id="path540"
             inkscape:connector-curvature="0" /></g><g
           id="g542"
           transform="translate(809.1377,161.291)"><path
             d="M 0,0 C 5.027,-0.894 5.444,-1.619 5.954,-10.371 6.47,-1.619 6.884,-0.894 11.911,0 6.884,0.894 6.47,1.617 5.954,10.369 5.444,1.617 5.027,0.894 0,0"
             style="fill:#273644;fill-opacity:1;fill-rule:nonzero;stroke:none"
             id="path544"
             inkscape:connector-curvature="0" /></g><g
           id="g546"
           transform="translate(796.9961,146.9717)"><path
             d="M 0,0 C 3.223,-0.575 3.489,-1.039 3.819,-6.654 4.15,-1.039 4.416,-0.575 7.642,0 4.416,0.571 4.15,1.038 3.819,6.65 3.489,1.038 3.223,0.571 0,0"
             style="fill:#273644;fill-opacity:1;fill-rule:nonzero;stroke:none"
             id="path548"
             inkscape:connector-curvature="0" /></g><g
           id="g550"
           transform="translate(1022.709,152.1719)"><path
             d="M 0,0 C -5.024,-0.896 -5.441,-1.619 -5.954,-10.371 -6.467,-1.619 -6.884,-0.896 -11.908,0 -6.884,0.893 -6.467,1.617 -5.954,10.37 -5.441,1.617 -5.024,0.893 0,0"
             style="fill:#273644;fill-opacity:1;fill-rule:nonzero;stroke:none"
             id="path552"
             inkscape:connector-curvature="0" /></g><g
           id="g554"
           transform="translate(997.0107,145.2344)"><path
             d="M 0,0 C -3.223,-0.575 -3.491,-1.039 -3.819,-6.654 -4.15,-1.039 -4.416,-0.575 -7.642,0 -4.416,0.574 -4.15,1.039 -3.819,6.653 -3.491,1.039 -3.223,0.574 0,0"
             style="fill:#273644;fill-opacity:1;fill-rule:nonzero;stroke:none"
             id="path556"
             inkscape:connector-curvature="0" /></g><g
           id="g558"
           transform="translate(1006.7891,130.7754)"><path
             d="m 0,0 c -3.223,-0.574 -3.488,-1.039 -3.819,-6.654 -0.328,5.615 -0.594,6.08 -3.82,6.654 3.226,0.571 3.492,1.036 3.82,6.65 C -3.488,1.036 -3.223,0.571 0,0"
             style="fill:#273644;fill-opacity:1;fill-rule:nonzero;stroke:none"
             id="path560"
             inkscape:connector-curvature="0" /></g><g
           id="g562"
           transform="translate(704.291,134.5967)"><path
             d="m 0,0 c 0,7.933 -9.58,14.367 -21.488,14.546 0.735,-1.687 1.147,-3.467 1.147,-5.311 0,-8.31 -8.001,-15.368 -19.167,-18.024 4.019,-3.506 10.357,-5.784 17.516,-5.784 2.454,0 4.807,0.278 7.012,0.77 4.768,-2.54 9.919,-2.746 7.181,-1.078 -1.059,0.647 -1.752,1.603 -2.2,2.676 C -3.982,-9.604 0,-5.112 0,0"
             style="fill:#273644;fill-opacity:1;fill-rule:nonzero;stroke:none"
             id="path564"
             inkscape:connector-curvature="0" /></g><g
           id="g566"
           transform="translate(681.834,175.0693)"><path
             d="m 0,0 c 5.926,0 8.888,2.813 8.888,6.28 0,3.469 -2.962,6.282 -8.888,6.282 -5.918,0 -15.313,-6.282 -15.313,-6.282 0,0 -9.393,6.282 -15.317,6.282 -5.921,0 -8.882,-2.813 -8.882,-6.282 0,-3.467 2.961,-6.28 8.882,-6.28 4.103,0 9.865,3.011 13.024,4.862 l 0,-16.412 c -3.46,0.972 -7.256,1.516 -11.25,1.516 -15.98,0 -28.938,-8.581 -28.938,-19.166 0,-8.937 9.234,-16.443 21.726,-18.566 -0.078,-1.796 -0.58,-3.844 -2.282,-4.88 -3.024,-1.841 6.283,-0.748 9.623,4.284 3.385,0.011 6.618,0.424 9.64,1.142 11.166,2.653 19.166,9.71 19.166,18.02 0,1.848 -0.419,3.626 -1.154,5.312 -1.937,4.448 -6.237,8.229 -11.941,10.713 l 0,18.035 C -9.857,3.008 -4.097,0 0,0"
             style="fill:#273644;fill-opacity:1;fill-rule:nonzero;stroke:none"
             id="path568"
             inkscape:connector-curvature="0" /></g><g
           id="g570"
           transform="translate(941.8369,57.2871)"><path
             d="m 0,0 c -4.536,0 -10.907,-3.328 -14.401,-5.378 l 0,28.874 -5.084,0.497 0,-29.371 c -3.494,2.049 -9.866,5.374 -14.402,5.374 -6.551,0 -9.827,-3.108 -9.827,-6.945 0,-3.836 3.276,-6.947 9.827,-6.947 4.536,0 10.908,3.327 14.402,5.376 l 0,-16.222 5.084,0 0,16.223 c 3.494,-2.046 9.865,-5.374 14.401,-5.374 6.551,0 9.826,3.109 9.826,6.944 C 9.826,-3.111 6.551,0 0,0"
             style="fill:#273644;fill-opacity:1;fill-rule:nonzero;stroke:none"
             id="path572"
             inkscape:connector-curvature="0" /></g><g
           id="g574"
           transform="translate(907.9502,115.6484)"><path
             d="m 0,0 c 4.536,0 10.907,3.328 14.401,5.378 l 0,-19.221 5.084,-0.301 0,19.523 c 3.494,-2.048 9.866,-5.375 14.402,-5.375 6.551,0 9.826,3.109 9.826,6.944 0,3.838 -3.275,6.949 -9.826,6.949 -6.539,0 -16.901,-6.919 -16.939,-6.946 l -0.008,0 C 16.9,6.978 6.537,13.893 0,13.893 c -6.551,0 -9.827,-3.11 -9.827,-6.945 C -9.827,3.111 -6.551,0 0,0"
             style="fill:#273644;fill-opacity:1;fill-rule:nonzero;stroke:none"
             id="path576"
             inkscape:connector-curvature="0" /></g><g
           id="g578"
           transform="translate(810.915,34.1533)"><path
             d="M 0,0 C 1.333,0 2.557,0.881 2.936,2.227 L 6.6,15.277 C 7.055,16.899 6.11,18.582 4.488,19.039 2.866,19.493 1.185,18.549 0.729,16.927 L -2.938,3.876 C -3.393,2.254 -2.446,0.571 -0.826,0.115 -0.551,0.037 -0.272,0 0,0"
             style="fill:#273644;fill-opacity:1;fill-rule:nonzero;stroke:none"
             id="path580"
             inkscape:connector-curvature="0" /></g><g
           id="g582"
           transform="translate(814.8809,33.002)"><path
             d="M 0,0 C 0.889,0 1.706,0.589 1.958,1.484 2.26,2.567 1.63,3.688 0.547,3.992 L -3.692,5.181 C -4.773,5.485 -5.896,4.854 -6.198,3.773 -6.503,2.691 -5.873,1.569 -4.79,1.267 l 4.241,-1.19 C -0.366,0.026 -0.182,0 0,0"
             style="fill:#273644;fill-opacity:1;fill-rule:nonzero;stroke:none"
             id="path584"
             inkscape:connector-curvature="0" /></g><g
           id="g586"
           transform="translate(834.0859,33.8008)"><path
             d="M 0,0 C 1.436,0 2.715,1.021 2.993,2.484 L 5.509,15.806 C 5.82,17.46 4.732,19.056 3.077,19.369 1.421,19.684 -0.172,18.591 -0.486,16.937 L -3,3.615 C -3.313,1.961 -2.224,0.367 -0.57,0.055 -0.378,0.018 -0.187,0 0,0"
             style="fill:#273644;fill-opacity:1;fill-rule:nonzero;stroke:none"
             id="path588"
             inkscape:connector-curvature="0" /></g><g
           id="g590"
           transform="translate(838.2246,33.002)"><path
             d="M 0,0 C 0.958,0 1.812,0.681 1.996,1.657 2.204,2.761 1.479,3.824 0.376,4.031 l -4.33,0.817 C -5.056,5.053 -6.12,4.331 -6.328,3.228 -6.537,2.124 -5.811,1.061 -4.706,0.854 L -0.379,0.037 C -0.252,0.014 -0.125,0 0,0"
             style="fill:#273644;fill-opacity:1;fill-rule:nonzero;stroke:none"
             id="path592"
             inkscape:connector-curvature="0" /></g><g
           id="g594"
           transform="translate(795.8936,68.7988)"><path
             d="M 0,0 0.036,0 C 0.142,0.015 8.703,-0.02 12.18,5.175 16.249,3.032 23.451,1.903 30.367,1.903 c 7.413,0 15.151,1.295 19.013,3.747 7.567,-1.5 12.741,-8.396 12.997,-8.747 0.997,-1.355 0.707,-3.265 -0.649,-4.263 -0.544,-0.398 -1.176,-0.591 -1.804,-0.591 -0.938,0 -1.862,0.429 -2.461,1.244 -0.039,0.054 -3.161,4.147 -7.434,5.837 0.686,-2.655 1.062,-5.148 1.062,-7.229 0,-10.465 -9.355,-18.949 -20.892,-18.949 -11.538,0 -20.892,8.484 -20.892,18.949 0,1.183 0.125,2.504 0.355,3.907 C 5.26,-6.005 0.93,-6.1 0.077,-6.1 l -0.135,0 c -1.681,0.03 -3.018,1.413 -2.995,3.092 C -3.028,-1.339 -1.665,0 0,0"
             style="fill:#273644;fill-opacity:1;fill-rule:nonzero;stroke:none"
             id="path596"
             inkscape:connector-curvature="0" /></g><g
           id="g598"
           transform="translate(812.5371,90.5479)"><path
             d="M 0,0 C 0,1.856 1.064,3.362 2.373,3.362 3.684,3.362 4.745,1.856 4.745,0 4.745,-1.854 3.684,-3.36 2.373,-3.36 1.064,-3.36 0,-1.854 0,0 m 13.345,-3.509 c 0,1 1.389,1.035 3.102,1.035 1.719,0 3.109,-0.035 3.109,-1.035 0,-0.999 -1.39,-1.811 -3.109,-1.811 -1.713,0 -3.102,0.812 -3.102,1.811 M 25.414,0 c 0,1.856 1.062,3.362 2.372,3.362 1.311,0 2.372,-1.506 2.372,-3.362 0,-1.854 -1.061,-3.36 -2.372,-3.36 -1.31,0 -2.372,1.506 -2.372,3.36 m -31.174,4.746 0,-17.283 c 0,-0.712 0.791,-1.519 2.252,-2.279 3.053,-1.592 9.072,-2.996 17.232,-2.996 7.925,0 13.823,1.327 16.955,2.859 1.636,0.802 2.53,1.659 2.53,2.416 l 0,17.283 c 0,7.848 -8.741,14.232 -19.485,14.232 C 2.981,18.978 -5.76,12.594 -5.76,4.746"
             style="fill:#273644;fill-opacity:1;fill-rule:nonzero;stroke:none"
             id="path600"
             inkscape:connector-curvature="0" /></g><g
           id="g602"
           transform="translate(869.7031,64.0166)"><path
             d="m 0,0 -0.693,1.209 -11.628,-6.668 c -2.001,-1.148 -4.556,-0.454 -5.703,1.546 -1.151,2.002 -0.455,4.556 1.545,5.703 l 11.631,6.669 -0.695,1.207 c -1.145,1.999 -0.45,4.557 1.546,5.702 l 2.479,1.422 7.338,4.208 c 0.668,0.383 1.519,0.151 1.903,-0.515 0.381,-0.668 0.15,-1.519 -0.518,-1.901 L 3.28,16.332 2.224,15.724 C 1.555,15.342 1.324,14.489 1.706,13.823 2.089,13.157 2.939,12.925 3.608,13.308 l 1.27,0.726 6.13,3.518 c 0.668,0.381 1.518,0.152 1.9,-0.515 0.383,-0.668 0.153,-1.519 -0.515,-1.9 L 6.264,11.619 4.993,10.892 C 4.327,10.51 4.095,9.658 4.479,8.99 4.861,8.324 5.712,8.091 6.381,8.475 l 1.269,0.729 6.13,3.516 c 0.668,0.382 1.519,0.151 1.9,-0.515 0.383,-0.669 0.153,-1.52 -0.515,-1.902 L 9.035,6.786 7.764,6.059 C 7.097,5.676 6.867,4.825 7.248,4.159 7.631,3.49 8.484,3.262 9.15,3.642 l 1.057,0.607 3.928,2.252 c 0.666,0.384 1.518,0.152 1.902,-0.518 0.381,-0.666 0.151,-1.517 -0.516,-1.898 L 8.183,-0.126 5.702,-1.544 C 3.706,-2.69 1.147,-1.998 0,0"
             style="fill:#273644;fill-opacity:1;fill-rule:nonzero;stroke:none"
             id="path604"
             inkscape:connector-curvature="0" /></g><g
           id="g606"
           transform="translate(997.5684,32.8232)"><path
             d="m 0,0 c 1.683,0 3.049,1.367 3.049,3.051 l 0,13.554 c 0,1.686 -1.366,3.051 -3.049,3.051 -1.684,0 -3.05,-1.365 -3.05,-3.051 l 0,-13.554 C -3.05,1.367 -1.684,0 0,0"
             style="fill:#273644;fill-opacity:1;fill-rule:nonzero;stroke:none"
             id="path608"
             inkscape:connector-curvature="0" /></g><g
           id="g610"
           transform="translate(993.1621,32.8232)"><path
             d="m 0,0 4.406,0 c 1.122,0 2.032,0.913 2.032,2.035 0,1.123 -0.91,2.032 -2.032,2.032 L 0,4.067 C -1.121,4.067 -2.031,3.158 -2.031,2.035 -2.031,0.913 -1.121,0 0,0"
             style="fill:#273644;fill-opacity:1;fill-rule:nonzero;stroke:none"
             id="path612"
             inkscape:connector-curvature="0" /></g><g
           id="g614"
           transform="translate(974.1875,32.8232)"><path
             d="m 0,0 c 1.685,0 3.05,1.367 3.05,3.051 l 0,13.554 c 0,1.686 -1.365,3.051 -3.05,3.051 -1.685,0 -3.051,-1.365 -3.051,-3.051 l 0,-13.554 C -3.051,1.367 -1.685,0 0,0"
             style="fill:#273644;fill-opacity:1;fill-rule:nonzero;stroke:none"
             id="path616"
             inkscape:connector-curvature="0" /></g><g
           id="g618"
           transform="translate(969.7832,32.8232)"><path
             d="m 0,0 4.404,0 c 1.121,0 2.032,0.913 2.032,2.035 0,1.123 -0.911,2.032 -2.032,2.032 L 0,4.067 C -1.124,4.067 -2.034,3.158 -2.034,2.035 -2.034,0.913 -1.124,0 0,0"
             style="fill:#273644;fill-opacity:1;fill-rule:nonzero;stroke:none"
             id="path620"
             inkscape:connector-curvature="0" /></g><g
           id="g622"
           transform="translate(974.0937,70.5273)"><path
             d="m 0,0 c 0.002,-0.001 0.007,-0.001 0.015,-0.004 -0.003,0 -0.003,0.001 -0.005,0.001 C 0.005,-0.001 0.002,-0.001 0,0"
             style="fill:#273644;fill-opacity:1;fill-rule:nonzero;stroke:none"
             id="path624"
             inkscape:connector-curvature="0" /></g><g
           id="g626"
           transform="translate(955.5977,77.3516)"><path
             d="m 0,0 c 1.1,1.274 3.026,1.418 4.301,0.319 0.055,-0.048 8.899,-5.424 8.912,-5.392 0.333,-0.16 0.684,-0.312 1.049,-0.458 0.087,-0.035 0.173,-0.068 0.259,-0.104 0.345,-0.132 0.705,-0.264 1.078,-0.386 0.024,-0.009 0.046,-0.016 0.07,-0.026 0.877,-0.289 1.825,-0.545 2.827,-0.777 0.002,-0.001 0.005,-0.001 0.01,-0.003 0.002,0 0.002,-0.001 0.005,-0.001 1.76,-0.402 3.682,-0.714 5.683,-0.931 0.055,-0.006 0.111,-0.011 0.165,-0.018 0.666,-0.07 1.34,-0.128 2.016,-0.177 0.084,-0.007 0.167,-0.011 0.254,-0.017 0.666,-0.047 1.339,-0.082 2.013,-0.106 0.076,-0.003 0.155,-0.004 0.232,-0.009 0.694,-0.021 1.39,-0.033 2.082,-0.033 0.537,0 1.073,0.007 1.612,0.021 0.145,0.002 0.29,0.007 0.434,0.012 0.448,0.016 0.894,0.033 1.345,0.057 0.095,0.006 0.194,0.01 0.29,0.016 0.549,0.029 1.092,0.07 1.634,0.113 0.077,0.007 0.153,0.015 0.227,0.02 0.486,0.043 0.969,0.092 1.445,0.144 0.089,0.01 0.175,0.02 0.261,0.031 1.101,0.127 2.174,0.284 3.211,0.471 0.048,0.008 0.096,0.016 0.147,0.027 1.058,0.193 2.075,0.416 3.031,0.67 l 0.005,0 c 1.67,0.446 3.165,0.977 4.386,1.602 0.417,0.21 0.791,0.436 1.141,0.668 9.188,-13.588 7.033,-23.726 6.938,-24.152 -0.322,-1.416 -1.58,-2.377 -2.974,-2.377 -0.224,0 -0.448,0.025 -0.676,0.077 -1.643,0.372 -2.675,2.007 -2.301,3.649 0.008,0.031 0.252,1.361 0.063,3.646 -2.53,-7.882 -10.541,-13.647 -20.049,-13.647 -11.537,0 -20.89,8.482 -20.89,18.945 0,2.064 0.374,4.535 1.045,7.158 C 5.156,-8.41 0.595,-4.538 0.318,-4.303 -0.956,-3.202 -1.1,-1.276 0,0"
             style="fill:#273644;fill-opacity:1;fill-rule:nonzero;stroke:none"
             id="path628"
             inkscape:connector-curvature="0" /></g><g
           id="g630"
           transform="translate(1003.9258,74.334)"><path
             d="M 0,0 C -0.048,-0.023 -0.086,-0.049 -0.134,-0.073 -0.15,-0.033 -0.173,0.008 -0.191,0.049 -0.127,0.038 -0.064,0.017 0,0"
             style="fill:#273644;fill-opacity:1;fill-rule:nonzero;stroke:none"
             id="path632"
             inkscape:connector-curvature="0" /></g><g
           id="g634"
           transform="translate(1000.2793,89.0771)"><path
             d="m 0,0 c 0,-1.858 -1.064,-3.363 -2.373,-3.363 -1.311,0 -2.372,1.505 -2.372,3.363 0,1.854 1.061,3.358 2.372,3.358 C -1.064,3.358 0,1.854 0,0 m -13.345,-3.509 c 0,-1.001 -1.389,-1.812 -3.105,-1.812 -1.713,0 -3.106,0.811 -3.106,1.812 0,0.999 1.393,1.034 3.106,1.034 1.716,0 3.105,-0.035 3.105,-1.034 M -25.416,0 c 0,-1.858 -1.062,-3.363 -2.37,-3.363 -1.311,0 -2.372,1.505 -2.372,3.363 0,1.854 1.061,3.358 2.372,3.358 1.308,0 2.37,-1.504 2.37,-3.358 m 31.176,-12.539 0,17.282 c 0,7.848 -8.741,14.232 -19.486,14.232 -10.742,0 -19.483,-6.384 -19.483,-14.232 l 0,-17.282 c 0,-0.755 0.892,-1.61 2.523,-2.412 3.129,-1.533 9.032,-2.862 16.96,-2.862 5.928,0 10.716,0.742 14.068,1.756 0.219,0.343 0.504,0.651 0.86,0.893 0.689,0.465 1.498,0.607 2.253,0.47 0.065,-0.011 0.127,-0.033 0.191,-0.049 1.372,0.741 2.114,1.514 2.114,2.204"
             style="fill:#273644;fill-opacity:1;fill-rule:nonzero;stroke:none"
             id="path636"
             inkscape:connector-curvature="0" /></g><g
           id="g638"
           transform="translate(1001.4814,73.9131)"><path
             d="M 0,0 C 0.688,0.465 1.498,0.607 2.253,0.47 2.271,0.429 2.294,0.388 2.311,0.348 1.474,-0.089 0.407,-0.51 -0.86,-0.893 -0.642,-0.55 -0.356,-0.242 0,0"
             style="fill:#273644;fill-opacity:1;fill-rule:nonzero;stroke:none"
             id="path640"
             inkscape:connector-curvature="0" /></g><g
           id="g642"
           transform="translate(974.0937,70.5273)"><path
             d="M 0,0 C -1.002,0.232 -1.95,0.488 -2.827,0.777 -1.948,0.49 -1.002,0.232 0,0"
             style="fill:#273644;fill-opacity:1;fill-rule:nonzero;stroke:none"
             id="path644"
             inkscape:connector-curvature="0" /></g><g
           id="g646"
           transform="translate(997.0127,70.1172)"><path
             d="M 0,0 C -1.037,-0.187 -2.11,-0.344 -3.211,-0.471 -2.11,-0.344 -1.037,-0.186 0,0"
             style="fill:#273644;fill-opacity:1;fill-rule:nonzero;stroke:none"
             id="path648"
             inkscape:connector-curvature="0" /></g><g
           id="g650"
           transform="translate(1000.1904,70.8145)"><path
             d="M 0,0 C -0.956,-0.254 -1.973,-0.477 -3.031,-0.67 -1.975,-0.477 -0.956,-0.254 0,0"
             style="fill:#273644;fill-opacity:1;fill-rule:nonzero;stroke:none"
             id="path652"
             inkscape:connector-curvature="0" /></g><g
           id="g654"
           transform="translate(905.6738,99.5986)"><path
             d="M 0,0 C 0.199,0.684 0.915,1.076 1.599,0.877 2.281,0.677 2.674,-0.041 2.473,-0.724 2.274,-1.405 1.558,-1.799 0.875,-1.599 0.191,-1.4 -0.201,-0.683 0,0 m -1.395,-4.768 c 0.2,0.685 0.916,1.076 1.601,0.877 0.683,-0.2 1.073,-0.917 0.875,-1.6 -0.202,-0.683 -0.916,-1.075 -1.601,-0.874 -0.683,0.197 -1.076,0.915 -0.875,1.597 M 5.861,0.876 C 6.06,1.559 6.776,1.951 7.459,1.752 8.143,1.55 8.535,0.835 8.334,0.149 8.135,-0.532 7.419,-0.924 6.735,-0.727 6.053,-0.523 5.66,0.19 5.861,0.876 M 4.467,-3.892 c 0.198,0.683 0.915,1.077 1.6,0.875 0.683,-0.2 1.076,-0.916 0.874,-1.599 -0.201,-0.683 -0.915,-1.075 -1.6,-0.876 -0.683,0.2 -1.073,0.915 -0.874,1.6 M 3.072,-8.66 c 0.201,0.683 0.917,1.075 1.601,0.875 0.682,-0.199 1.075,-0.914 0.874,-1.6 -0.198,-0.682 -0.915,-1.074 -1.598,-0.874 -0.685,0.199 -1.076,0.914 -0.877,1.599 m 7.255,5.64 c 0.199,0.685 0.916,1.078 1.601,0.875 0.68,-0.199 1.074,-0.914 0.875,-1.598 -0.201,-0.683 -0.918,-1.074 -1.601,-0.877 -0.682,0.201 -1.076,0.918 -0.875,1.6 M 8.933,-7.785 c 0.199,0.682 0.918,1.076 1.598,0.875 0.686,-0.2 1.076,-0.916 0.877,-1.6 -0.199,-0.684 -0.915,-1.076 -1.598,-0.876 -0.683,0.2 -1.076,0.916 -0.877,1.601 m 6.469,3.649 c 0.788,2.689 3.617,4.238 6.307,3.451 l 13.045,-3.814 c 2.688,-0.786 4.236,-3.615 3.45,-6.304 l -1.591,-5.442 c -0.786,-2.69 -3.616,-4.237 -6.304,-3.451 l -13.044,3.813 c -2.692,0.786 -4.24,3.614 -3.453,6.304 l 1.59,5.443 z m 25.205,-7.736 c 0.202,0.684 0.916,1.076 1.601,0.875 0.684,-0.198 1.076,-0.916 0.875,-1.599 -0.199,-0.681 -0.915,-1.074 -1.599,-0.877 -0.684,0.201 -1.075,0.917 -0.877,1.601 m -1.391,-4.767 c 0.198,0.683 0.915,1.076 1.597,0.874 0.684,-0.197 1.077,-0.914 0.877,-1.597 -0.201,-0.682 -0.917,-1.075 -1.6,-0.876 -0.686,0.198 -1.075,0.915 -0.874,1.599 m 7.253,5.641 c 0.201,0.684 0.915,1.075 1.6,0.878 0.683,-0.201 1.074,-0.919 0.875,-1.601 -0.199,-0.682 -0.916,-1.076 -1.598,-0.876 -0.683,0.198 -1.076,0.916 -0.877,1.599 m -1.393,-4.768 c 0.199,0.685 0.916,1.078 1.599,0.878 0.682,-0.201 1.076,-0.919 0.877,-1.601 -0.201,-0.682 -0.918,-1.074 -1.601,-0.875 -0.682,0.198 -1.076,0.916 -0.875,1.598 m -1.396,-4.767 c 0.201,0.684 0.918,1.076 1.6,0.876 0.686,-0.198 1.076,-0.916 0.877,-1.6 -0.201,-0.683 -0.915,-1.075 -1.598,-0.874 -0.685,0.198 -1.079,0.914 -0.879,1.598 m 7.258,5.642 c 0.199,0.683 0.915,1.076 1.598,0.877 0.683,-0.201 1.073,-0.918 0.877,-1.6 -0.201,-0.684 -0.918,-1.077 -1.6,-0.876 -0.684,0.198 -1.077,0.914 -0.875,1.599 m -1.395,-4.767 c 0.199,0.684 0.915,1.076 1.599,0.876 0.684,-0.2 1.075,-0.917 0.877,-1.601 -0.2,-0.68 -0.916,-1.075 -1.601,-0.875 -0.684,0.199 -1.074,0.914 -0.875,1.6 M -4.1,-1.194 -4.205,-1.553 c -1.586,-5.423 1.526,-11.107 6.951,-12.692 l 40.68,-11.894 c 5.425,-1.586 11.105,1.528 12.692,6.95 l 0.106,0.36 c 1.584,5.425 -1.527,11.106 -6.952,12.692 L 8.59,5.757 C 3.168,7.342 -2.516,4.23 -4.1,-1.194"
             style="fill:#273644;fill-opacity:1;fill-rule:nonzero;stroke:none"
             id="path656"
             inkscape:connector-curvature="0" /></g><g
           id="g658"
           transform="translate(926.8105,96.9639)"><path
             d="m 0,0 13.045,-3.814 c 1.614,-0.472 2.544,-2.169 2.072,-3.784 l -1.591,-5.442 c -0.472,-1.612 -2.171,-2.543 -3.786,-2.071 l -13.042,3.813 c -1.613,0.472 -2.543,2.169 -2.07,3.783 l 1.591,5.443 C -3.31,-0.46 -1.613,0.47 0,0"
             style="fill:#273644;fill-opacity:1;fill-rule:nonzero;stroke:none"
             id="path660"
             inkscape:connector-curvature="0" /></g><g
           id="g662"
           transform="translate(923.0293,94.8916)"><path
             d="m 0,0 c 0.472,1.612 2.168,2.542 3.781,2.072 l 13.045,-3.814 c 1.614,-0.472 2.544,-2.169 2.072,-3.783 l -1.59,-5.443 c -0.473,-1.612 -2.171,-2.543 -3.787,-2.071 L 0.479,-9.226 c -1.613,0.472 -2.542,2.169 -2.07,3.784 L 0,0 z"
             style="fill:#273644;fill-opacity:1;fill-rule:nonzero;stroke:none"
             id="path664"
             inkscape:connector-curvature="0" /></g><g
           id="g666"
           transform="translate(356.3867,37.9805)"><path
             d="m 0,0 c -1.523,0.307 -2.588,1.727 -2.425,3.303 l 1.399,13.483 c 0.174,1.676 1.673,2.891 3.348,2.717 1.672,-0.169 2.893,-1.674 2.718,-3.347 L 3.642,2.674 C 3.47,0.998 1.968,-0.22 0.293,-0.045 0.194,-0.032 0.096,-0.021 0,0"
             style="fill:#273644;fill-opacity:1;fill-rule:nonzero;stroke:none"
             id="path668"
             inkscape:connector-curvature="0" /></g><g
           id="g670"
           transform="translate(356.4849,37.9668)"><path
             d="M 0,0 C -1.014,0.204 -1.725,1.152 -1.617,2.202 -1.5,3.318 -0.501,4.129 0.618,4.014 L 4.997,3.56 C 6.113,3.441 6.927,2.441 6.81,1.325 6.692,0.209 5.693,-0.604 4.577,-0.486 L 0.195,-0.031 C 0.129,-0.025 0.065,-0.013 0,0"
             style="fill:#273644;fill-opacity:1;fill-rule:nonzero;stroke:none"
             id="path672"
             inkscape:connector-curvature="0" /></g><g
           id="g674"
           transform="translate(379.6436,35.5674)"><path
             d="m 0,0 c -1.521,0.309 -2.588,1.729 -2.425,3.304 l 1.4,13.483 c 0.172,1.677 1.672,2.895 3.347,2.72 1.675,-0.174 2.892,-1.674 2.719,-3.349 L 3.642,2.674 C 3.469,0.999 1.97,-0.22 0.295,-0.045 0.194,-0.034 0.096,-0.02 0,0"
             style="fill:#273644;fill-opacity:1;fill-rule:nonzero;stroke:none"
             id="path676"
             inkscape:connector-curvature="0" /></g><g
           id="g678"
           transform="translate(379.7422,35.5557)"><path
             d="M 0,0 C -1.016,0.204 -1.726,1.149 -1.618,2.199 -1.5,3.318 -0.501,4.131 0.616,4.016 L 4.997,3.558 C 6.115,3.441 6.926,2.442 6.81,1.327 6.693,0.209 5.693,-0.603 4.576,-0.488 l -4.38,0.455 C 0.127,-0.025 0.062,-0.014 0,0"
             style="fill:#273644;fill-opacity:1;fill-rule:nonzero;stroke:none"
             id="path680"
             inkscape:connector-curvature="0" /></g><g
           id="g682"
           transform="translate(390.1279,71.1162)"><path
             d="m 0,0 c 5.106,2.938 11.598,8.901 14,20.747 0.334,1.651 -0.733,3.262 -2.384,3.595 C 9.966,24.677 8.354,23.609 8.019,21.959 7.156,17.696 5.664,14.395 3.926,11.833 L 3.421,6.945 C 2.932,2.223 -8.36,0.817 -18.736,1.895 c -2.132,0.221 -4.225,0.539 -6.219,0.943 l -0.001,0 C -29.951,3.85 -35.107,5.596 -37.697,7.91 -40.404,6.928 -44.38,6.097 -50.236,5.881 c -1.682,-0.066 -2.998,-1.482 -2.933,-3.162 0.052,-1.434 1.089,-2.601 2.437,-2.876 0.233,-0.046 0.474,-0.068 0.722,-0.06 4.494,0.168 8.135,0.696 11.103,1.437 -0.961,-2.575 -1.595,-5.027 -1.811,-7.104 -1.079,-10.407 7.35,-19.808 18.825,-20.999 11.477,-1.19 21.657,6.281 22.735,16.688 C 1.132,-7.399 0.823,-3.795 0,0"
             style="fill:#273644;fill-opacity:1;fill-rule:nonzero;stroke:none"
             id="path684"
             inkscape:connector-curvature="0" /></g><g
           id="g686"
           transform="translate(362.4932,97.2646)"><path
             d="M 0,0 C 1.304,-0.137 2.205,-1.742 2.015,-3.588 1.822,-5.435 0.61,-6.82 -0.694,-6.684 -1.997,-6.552 -2.896,-4.942 -2.704,-3.097 -2.515,-1.253 -1.3,0.134 0,0 m 25.281,-2.619 c 1.301,-0.139 2.202,-1.748 2.011,-3.592 -0.191,-1.845 -1.403,-3.231 -2.705,-3.098 -1.303,0.136 -2.204,1.745 -2.014,3.59 0.192,1.846 1.404,3.233 2.708,3.1 m -12.175,-7.468 c -1.704,0.175 -3.002,1.129 -2.901,2.123 0.105,0.995 1.491,0.885 3.195,0.706 1.706,-0.174 3.084,-0.353 2.983,-1.346 -0.105,-0.994 -1.57,-1.66 -3.277,-1.483 m -22.835,-4.887 c -0.07,-0.675 0.548,-1.496 1.782,-2.346 2.066,-1.431 5.856,-2.951 11.03,-3.997 l 10e-4,0 c 1.929,-0.393 3.957,-0.698 6.025,-0.913 12.006,-1.247 19.697,1.045 19.922,3.236 l 0.187,1.776 1.598,15.412 c 0.733,7.071 -5.871,13.855 -15.362,15.78 -0.834,0.167 -1.692,0.298 -2.552,0.388 C 7.674,14.905 2.609,13.905 -1.353,11.552 -5.218,9.255 -7.561,5.94 -7.944,2.215 l -1.785,-17.189 z"
             style="fill:#273644;fill-opacity:1;fill-rule:nonzero;stroke:none"
             id="path688"
             inkscape:connector-curvature="0" /></g><g
           id="g690"
           transform="translate(523.7012,83.5811)"><path
             d="m 0,0 c 0,10.478 -12.819,18.97 -28.637,18.97 -7.254,0 -13.873,-1.79 -18.919,-4.734 -3.068,0.886 -6.34,1.519 -9.762,1.853 0.549,3.973 -0.136,8.037 -2.275,11.609 -1.109,1.853 -2.789,3.874 -4.833,5.865 1.875,3.004 3.721,7.136 5.299,12.836 0.449,1.623 -0.502,3.303 -2.125,3.754 -1.626,0.451 -3.306,-0.502 -3.754,-2.127 -0.879,-3.173 -1.808,-5.712 -2.734,-7.764 -0.309,-1.575 -1.427,-3.456 -3.34,-5.578 -2.776,-3.081 -6.94,-6.354 -11.725,-9.218 -6.78,-4.061 -13.655,-6.582 -17.942,-6.582 l -0.001,0 c -0.311,0 -0.602,0.013 -0.883,0.041 -3.949,-1.279 -8.587,-3.684 -13.112,-8.158 -1.198,-1.186 -1.208,-3.117 -0.024,-4.315 0.597,-0.601 1.383,-0.903 2.169,-0.903 0.774,0 1.55,0.293 2.144,0.882 4.313,4.266 8.66,6.218 12.048,7.099 0.803,-2.851 1.819,-5.382 2.962,-7.293 0.191,-0.319 0.411,-0.612 0.619,-0.915 -4.334,-4.14 -6.881,-9.163 -6.881,-14.583 0,-14.149 17.324,-25.626 38.694,-25.626 16.192,0 30.054,6.593 35.823,15.944 C -12.044,-18.444 0,-10.153 0,0"
             style="fill:#273644;fill-opacity:1;fill-rule:nonzero;stroke:none"
             id="path692"
             inkscape:connector-curvature="0" /></g><g
           id="g694"
           transform="translate(416.9136,121.7334)"><path
             d="M 0,0 C 1.124,0.671 2.806,-0.073 3.759,-1.664 4.713,-3.257 4.574,-5.092 3.451,-5.766 2.327,-6.438 0.645,-5.693 -0.309,-4.102 -1.263,-2.509 -1.125,-0.673 0,0 m 12.724,0.818 c 1.471,0.88 2.682,1.565 3.193,0.705 0.516,-0.856 -0.261,-2.267 -1.732,-3.148 -1.471,-0.881 -3.081,-0.898 -3.595,-0.039 -0.512,0.856 0.662,1.602 2.134,2.482 m 9.081,12.235 c 1.124,0.675 2.807,-0.071 3.759,-1.663 0.954,-1.594 0.815,-3.429 -0.306,-4.101 -1.126,-0.674 -2.811,0.071 -3.763,1.664 -0.953,1.591 -0.814,3.428 0.31,4.1 M 3.513,-16.425 c 0.314,-0.522 1.21,-0.811 2.527,-0.812 l 0.001,0 c 0.28,0 0.576,0.016 0.881,0.041 3.954,0.326 10.091,2.705 16.017,6.254 4.614,2.762 8.614,5.9 11.259,8.835 0.894,0.989 1.524,1.851 1.978,2.605 0.938,1.549 1.068,2.598 0.773,3.092 L 28.073,18.418 C 25.876,22.087 21.575,24.19 16.27,24.19 12.229,24.19 7.888,22.923 4.042,20.622 -0.47,17.921 -3.922,14.088 -5.683,9.827 -7.402,5.671 -7.287,1.616 -5.363,-1.598 l 8.876,-14.827 z"
             style="fill:#273644;fill-opacity:1;fill-rule:nonzero;stroke:none"
             id="path696"
             inkscape:connector-curvature="0" /></g><g
           id="g698"
           transform="translate(529.5195,147.3359)"><path
             d="m 0,0 c -5.026,-0.895 -5.442,-1.618 -5.955,-10.37 -0.514,8.752 -0.93,9.475 -5.957,10.37 5.027,0.893 5.443,1.617 5.957,10.371 C -5.442,1.617 -5.026,0.893 0,0"
             style="fill:#273644;fill-opacity:1;fill-rule:nonzero;stroke:none"
             id="path700"
             inkscape:connector-curvature="0" /></g><g
           id="g702"
           transform="translate(503.8184,140.3994)"><path
             d="M 0,0 C -3.223,-0.575 -3.49,-1.039 -3.819,-6.654 -4.15,-1.039 -4.416,-0.575 -7.64,0 -4.416,0.573 -4.15,1.038 -3.819,6.652 -3.49,1.038 -3.223,0.573 0,0"
             style="fill:#273644;fill-opacity:1;fill-rule:nonzero;stroke:none"
             id="path704"
             inkscape:connector-curvature="0" /></g><g
           id="g706"
           transform="translate(513.5991,125.9395)"><path
             d="M 0,0 C -3.223,-0.574 -3.491,-1.039 -3.819,-6.654 -4.15,-1.039 -4.416,-0.574 -7.64,0 -4.416,0.571 -4.15,1.036 -3.819,6.65 -3.491,1.036 -3.223,0.571 0,0"
             style="fill:#273644;fill-opacity:1;fill-rule:nonzero;stroke:none"
             id="path708"
             inkscape:connector-curvature="0" /></g><g
           id="g710"
           transform="translate(331.8955,48.4902)"><path
             d="m 0,0 c -3.601,0 -9.309,-3.813 -9.329,-3.826 l -0.004,0 c -0.019,0.013 -5.726,3.823 -9.326,3.823 -3.609,0 -5.41,-1.713 -5.41,-3.824 0,-2.113 1.801,-3.827 5.41,-3.827 2.497,0 6.005,1.834 7.929,2.962 l 0,-10.749 2.799,0 0,10.75 C -6.007,-5.818 -2.498,-7.65 0,-7.65 c 3.606,0 5.411,1.712 5.411,3.823 C 5.411,-1.715 3.606,0 0,0"
             style="fill:#273644;fill-opacity:1;fill-rule:nonzero;stroke:none"
             id="path712"
             inkscape:connector-curvature="0" /></g></g></g></g></svg>